<?xml version="1.0" encoding="utf-8"?>
<!-- Generated by IcoMoon.io -->
<!DOCTYPE svg PUBLIC "-//W3C//DTD SVG 1.1//EN" "http://www.w3.org/Graphics/SVG/1.1/DTD/svg11.dtd">
<svg version="1.1" xmlns="http://www.w3.org/2000/svg" xmlns:xlink="http://www.w3.org/1999/xlink" width="37" height="32" viewBox="0 0 37 32">
<path fill="#444444" d="M32.127 4.927h-4.317l-0.99-2.616c-0.584-1.346-1.879-2.235-3.352-2.311h-9.879c-1.473 0.076-2.743 0.965-3.352 2.311l-0.99 2.616h-4.317c-2.717 0-4.927 2.21-4.952 4.927v17.219c0 2.717 2.21 4.927 4.952 4.927h27.2c2.717 0 4.927-2.21 4.952-4.927v-17.219c-0.025-2.717-2.235-4.927-4.952-4.927zM18.54 27.073c-4.749-0.025-8.61-3.886-8.584-8.66 0.025-4.749 3.886-8.61 8.66-8.584 4.749 0.025 8.584 3.86 8.584 8.61-0.025 4.8-3.886 8.635-8.66 8.635zM24.229 17.702c0-0.406-0.33-0.762-0.762-0.762 0 0 0 0 0 0h-3.302v-3.276c0-0.432-0.33-0.762-0.762-0.762 0 0 0 0 0 0h-1.524c-0.432 0-0.762 0.33-0.762 0.762v3.276h-3.302c-0.406 0-0.762 0.33-0.762 0.762 0 0 0 0 0 0v1.524c0 0.432 0.33 0.762 0.762 0.762h3.302v3.276c0 0.406 0.33 0.762 0.762 0.762h1.524c0.432 0 0.762-0.33 0.762-0.762v-3.276h3.302c0.432 0 0.762-0.33 0.762-0.762 0 0 0 0 0 0v-1.524z"></path>
</svg>
