<?xml version="1.0" encoding="utf-8"?>
<!-- Generated by IcoMoon.io -->
<!DOCTYPE svg PUBLIC "-//W3C//DTD SVG 1.1//EN" "http://www.w3.org/Graphics/SVG/1.1/DTD/svg11.dtd">
<svg version="1.1" xmlns="http://www.w3.org/2000/svg" xmlns:xlink="http://www.w3.org/1999/xlink" width="32" height="32" viewBox="0 0 32 32">
<path fill="#444444" d="M26.764 12.607c0 0.356-0.127 0.686-0.381 0.94l-11.311 11.311c-0.254 0.254-0.61 0.381-0.966 0.407-0.356 0-0.686-0.152-0.94-0.407l-7.549-7.549c-0.254-0.254-0.381-0.585-0.381-0.94s0.127-0.712 0.381-0.966l1.906-1.881c0.508-0.508 1.322-0.534 1.855-0.025 0 0 0.025 0.025 0.025 0.025l4.702 4.702 8.489-8.489c0.508-0.508 1.322-0.534 1.855-0.025 0 0 0.025 0.025 0.025 0.025l1.906 1.881c0.254 0.305 0.381 0.635 0.381 0.991zM32 15.987c0-8.845-7.168-16.013-16.013-16.013s-16.013 7.168-16.013 16.013 7.168 16.013 16.013 16.013c0 0 0 0 0 0 8.845 0 16.013-7.168 16.013-16.013v0z"></path>
</svg>
