<?xml version="1.0" encoding="utf-8"?>
<!-- Generated by IcoMoon.io -->
<!DOCTYPE svg PUBLIC "-//W3C//DTD SVG 1.1//EN" "http://www.w3.org/Graphics/SVG/1.1/DTD/svg11.dtd">
<svg version="1.1" xmlns="http://www.w3.org/2000/svg" xmlns:xlink="http://www.w3.org/1999/xlink" width="29" height="32" viewBox="0 0 29 32">
<path fill="#444444" d="M29.46 5.968c0-0.356-0.279-0.66-0.66-0.66 0 0 0 0-0.025 0h-6.451l-1.473-3.479c-0.508-1.092-1.575-1.803-2.768-1.854h-6.705c-1.194 0.051-2.26 0.762-2.794 1.854l-1.473 3.505h-6.451c-0.356 0-0.66 0.279-0.66 0.66 0 0 0 0 0 0.025v1.346c0 0.356 0.279 0.66 0.66 0.66 0 0 0 0 0.025 0h2.006v19.835c0 2.286 1.498 4.165 3.352 4.165h17.397c1.829 0 3.352-1.956 3.352-4.241v-19.759h2.006c0.356 0 0.66-0.279 0.66-0.66 0 0 0 0 0-0.025v-1.371zM11.048 2.87c0.102-0.102 0.229-0.178 0.356-0.229h6.629c0.127 0.051 0.254 0.127 0.356 0.229l0.99 2.438h-9.346l1.016-2.438zM10.717 24.635c0 0.025 0 0.025 0 0.025 0 0.381-0.305 0.66-0.66 0.66h-1.346c-0.025 0-0.025 0-0.025 0-0.381 0-0.66-0.305-0.66-0.66v-11.962c0-0.025 0-0.025 0-0.025 0-0.381 0.305-0.66 0.66-0.66h1.346c0.025 0 0.025 0 0.025 0 0.381 0 0.66 0.305 0.66 0.66v11.962zM16.076 24.635c0 0.025 0 0.025 0 0.025 0 0.381-0.305 0.66-0.66 0.66h-1.346c-0.025 0-0.025 0-0.025 0-0.381 0-0.66-0.305-0.66-0.66v-11.962c0-0.025 0-0.025 0-0.025 0-0.381 0.305-0.66 0.66-0.66h1.346c0.025 0 0.025 0 0.025 0 0.381 0 0.66 0.305 0.66 0.66v11.962zM21.41 24.635c0 0.025 0 0.025 0 0.025 0 0.381-0.305 0.66-0.66 0.66h-1.346c-0.025 0-0.025 0-0.025 0-0.381 0-0.66-0.305-0.66-0.66v-11.962c0-0.025 0-0.025 0-0.025 0-0.381 0.305-0.66 0.66-0.66h1.346c0.025 0 0.025 0 0.025 0 0.381 0 0.66 0.305 0.66 0.66v11.962z"></path>
</svg>
