<?xml version="1.0" encoding="utf-8"?>
<!-- Generated by IcoMoon.io -->
<!DOCTYPE svg PUBLIC "-//W3C//DTD SVG 1.1//EN" "http://www.w3.org/Graphics/SVG/1.1/DTD/svg11.dtd">
<svg version="1.1" xmlns="http://www.w3.org/2000/svg" xmlns:xlink="http://www.w3.org/1999/xlink" width="32" height="32" viewBox="0 0 32 32">
<path fill="#444444" d="M16 0c-8.838 0-16 6.273-16 13.994 0 4.419 2.337 8.356 5.994 10.921v7.086l7.010-4.267c0.99 0.178 1.981 0.254 2.997 0.254 8.838 0 16-6.273 16-13.994s-7.162-13.994-16-13.994zM8 16c-1.092 0-2.006-0.889-2.006-2.006s0.889-2.006 2.006-2.006 2.006 0.889 2.006 2.006-0.889 2.006-2.006 2.006zM16 16c-1.092 0-2.006-0.889-2.006-2.006s0.889-2.006 2.006-2.006 2.006 0.889 2.006 2.006-0.889 2.006-2.006 2.006zM24 16c-1.092 0-2.006-0.889-2.006-2.006s0.889-2.006 2.006-2.006 2.006 0.889 2.006 2.006-0.889 2.006-2.006 2.006z"></path>
</svg>
