<?xml version="1.0" encoding="utf-8"?>
<!-- Generated by IcoMoon.io -->
<!DOCTYPE svg PUBLIC "-//W3C//DTD SVG 1.1//EN" "http://www.w3.org/Graphics/SVG/1.1/DTD/svg11.dtd">
<svg version="1.1" xmlns="http://www.w3.org/2000/svg" xmlns:xlink="http://www.w3.org/1999/xlink" width="32" height="32" viewBox="0 0 32 32">
<path fill="#444444" d="M16 0c-8.829 0-16 7.171-16 16s7.171 16 16 16c8.829 0 16-7.171 16-16s-7.171-16-16-16zM18.654 17.99c0 0.026 0 0.026 0 0.026 0 0.357-0.306 0.638-0.663 0.638h-6.66c-0.026 0-0.026 0-0.026 0-0.357 0-0.638-0.306-0.638-0.663v-1.327c0-0.026 0-0.026 0-0.026 0-0.357 0.306-0.638 0.663-0.638h4.67v-7.324c0-0.026 0-0.026 0-0.026 0-0.357 0.306-0.638 0.663-0.638h1.327c0.026 0 0.026 0 0.026 0 0.357 0 0.638 0.306 0.638 0.663v9.314z"></path>
</svg>
