<?xml version="1.0" encoding="utf-8"?>
<!-- Generated by IcoMoon.io -->
<!DOCTYPE svg PUBLIC "-//W3C//DTD SVG 1.1//EN" "http://www.w3.org/Graphics/SVG/1.1/DTD/svg11.dtd">
<svg version="1.1" xmlns="http://www.w3.org/2000/svg" xmlns:xlink="http://www.w3.org/1999/xlink" width="32" height="32" viewBox="0 0 32 32">
<path fill="#444444" d="M25.575 16c0 0.686-0.533 1.27-1.219 1.321h-9.041c-0.381-0.025-0.66-0.33-0.686-0.711v-7.060c0.025-0.736 0.66-1.321 1.397-1.295s1.295 0.61 1.295 1.346v4.267c0 0.025 0 0.025 0 0.051s0 0.025 0 0.025v0c0.025 0.356 0.305 0.66 0.66 0.686h6.298c0.736 0.076 1.295 0.66 1.295 1.371zM16 0c8.838 0 16 7.162 16.025 16 0 8.838-7.162 16-16 16.025-8.838 0-16-7.162-16.025-16 0 0 0 0 0 0 0-8.864 7.162-16.025 16-16.025zM27.835 16c0-6.552-5.308-11.835-11.86-11.835s-11.835 5.308-11.835 11.86c0 6.552 5.308 11.835 11.835 11.835 6.552 0 11.86-5.308 11.86-11.86 0 0 0 0 0 0z"></path>
</svg>
