<?xml version="1.0" encoding="utf-8"?>
<!-- Generated by IcoMoon.io -->
<!DOCTYPE svg PUBLIC "-//W3C//DTD SVG 1.1//EN" "http://www.w3.org/Graphics/SVG/1.1/DTD/svg11.dtd">
<svg version="1.1" xmlns="http://www.w3.org/2000/svg" xmlns:xlink="http://www.w3.org/1999/xlink" width="32" height="32" viewBox="0 0 32 32">
<path fill="#444444" d="M18.654 8.676c0-0.357-0.281-0.663-0.638-0.663 0 0 0 0-0.026 0h-1.327c-0.357 0-0.663 0.281-0.663 0.638 0 0 0 0 0 0.026v7.324h-4.67c-0.357 0-0.663 0.281-0.663 0.638 0 0 0 0 0 0.026v1.327c0 0.357 0.281 0.663 0.638 0.663 0 0 0 0 0.026 0h6.66c0.357 0 0.663-0.281 0.663-0.638 0 0 0 0 0-0.026v-9.314zM27.33 16c0 6.252-5.078 11.33-11.33 11.33s-11.33-5.078-11.33-11.33c0-6.252 5.078-11.33 11.33-11.33 0 0 0 0 0 0 6.252 0 11.33 5.078 11.33 11.33v0zM32 16c0-8.829-7.171-16-16-16s-16 7.171-16 16c0 8.829 7.171 16 16 16 0 0 0 0 0 0 8.829 0 16-7.171 16-16v0z"></path>
</svg>
