<?xml version="1.0" encoding="utf-8"?>
<!-- Generated by IcoMoon.io -->
<!DOCTYPE svg PUBLIC "-//W3C//DTD SVG 1.1//EN" "http://www.w3.org/Graphics/SVG/1.1/DTD/svg11.dtd">
<svg version="1.1" xmlns="http://www.w3.org/2000/svg" xmlns:xlink="http://www.w3.org/1999/xlink" width="32" height="32" viewBox="0 0 32 32">
<path fill="#444444" d="M32 25.752c0-0.686-0.279-1.346-0.762-1.829l-7.924-7.924 7.924-7.924c1.016-1.016 1.016-2.641 0-3.657l-3.657-3.657c-1.016-1.016-2.641-1.016-3.657 0l-7.924 7.924-7.924-7.924c-1.016-1.016-2.641-1.016-3.657 0l-3.657 3.657c-1.016 1.016-1.016 2.641 0 3.657l7.924 7.924-7.924 7.924c-1.016 1.016-1.016 2.641 0 3.657l3.657 3.657c1.016 1.016 2.641 1.016 3.657 0l7.924-7.924 7.924 7.924c1.016 1.016 2.641 1.016 3.657 0l3.657-3.657c0.483-0.483 0.762-1.143 0.762-1.829z"></path>
</svg>
