<?xml version="1.0" encoding="utf-8"?>
<!-- Generated by IcoMoon.io -->
<!DOCTYPE svg PUBLIC "-//W3C//DTD SVG 1.1//EN" "http://www.w3.org/Graphics/SVG/1.1/DTD/svg11.dtd">
<svg version="1.1" xmlns="http://www.w3.org/2000/svg" xmlns:xlink="http://www.w3.org/1999/xlink" width="32" height="32" viewBox="0 0 32 32">
<path fill="#444444" d="M23.943 20.715c0 0.356-0.152 0.712-0.407 0.966l-1.881 1.881c-0.254 0.254-0.61 0.407-0.966 0.407s-0.686-0.152-0.94-0.407l-3.762-3.762-3.762 3.762c-0.254 0.254-0.585 0.407-0.94 0.407s-0.712-0.152-0.966-0.407l-1.881-1.881c-0.254-0.254-0.407-0.61-0.407-0.966s0.152-0.686 0.407-0.94l3.762-3.762-3.762-3.762c-0.254-0.254-0.407-0.585-0.407-0.94s0.152-0.712 0.407-0.966l1.881-1.881c0.254-0.254 0.61-0.407 0.966-0.407s0.686 0.152 0.94 0.407l3.762 3.762 3.762-3.762c0.254-0.254 0.585-0.381 0.94-0.407 0.356 0 0.712 0.152 0.966 0.407l1.881 1.881c0.254 0.254 0.407 0.61 0.407 0.966s-0.152 0.686-0.407 0.94l-3.762 3.762 3.762 3.762c0.254 0.229 0.407 0.585 0.407 0.94zM32 15.987c0-8.845-7.168-16.013-16.013-16.013s-16.013 7.168-16.013 16.013 7.168 16.013 16.013 16.013v0c8.845 0 16.013-7.168 16.013-16.013z"></path>
</svg>
