<?xml version="1.0" encoding="utf-8"?>
<!-- Generated by IcoMoon.io -->
<!DOCTYPE svg PUBLIC "-//W3C//DTD SVG 1.1//EN" "http://www.w3.org/Graphics/SVG/1.1/DTD/svg11.dtd">
<svg version="1.1" xmlns="http://www.w3.org/2000/svg" xmlns:xlink="http://www.w3.org/1999/xlink" width="32" height="32" viewBox="0 0 32 32">
<path fill="#444444" d="M16 32c-8.832 0-16-7.168-16-16s7.168-16 16-16c8.832 0 16 7.168 16 16 0 0 0 0 0 0 0 8.832-7.168 16-16 16 0 0 0 0 0 0zM16 1.997c-7.731 0-14.003 6.272-14.003 14.003s6.272 14.003 14.003 14.003 14.003-6.272 14.003-14.003c0 0 0 0 0 0 0-7.731-6.272-14.003-14.003-14.003 0 0 0 0 0 0zM22.4 18.842c0-1.28-0.384-2.278-1.152-2.995s-2.022-1.203-3.763-1.459l-2.304-0.333c-0.589-0.077-0.973-0.205-1.178-0.41-0.23-0.23-0.333-0.563-0.307-0.87 0-0.435 0.128-0.742 0.358-0.922s0.717-0.256 1.434-0.256c1.178 0 2.253 0 3.226 0.026s1.741 0.026 2.278 0.051l0.64-3.507c-0.87-0.026-1.638-0.051-2.304-0.051h-1.869v-2.483h-3.072v2.483c-1.613 0.102-2.842 0.512-3.661 1.28-0.819 0.742-1.254 1.818-1.254 3.226v0.333c0 1.51 0.358 2.637 1.075 3.379s1.869 1.203 3.482 1.408l2.662 0.358c0.589 0.077 0.998 0.205 1.178 0.384 0.23 0.256 0.333 0.589 0.307 0.922 0 0.23-0.026 0.435-0.077 0.64-0.051 0.154-0.154 0.307-0.307 0.384-0.179 0.102-0.41 0.179-0.614 0.205-0.333 0.051-0.691 0.051-1.024 0.051-1.024 0-2.048 0-3.098-0.026-1.050 0-1.946 0-2.714 0l-0.64 3.482c0.486 0.026 1.152 0.026 1.971 0.026s1.741 0.026 2.739 0.026v2.483h3.072v-2.534c0.717-0.051 1.434-0.179 2.125-0.41 0.563-0.179 1.101-0.486 1.562-0.87 0.435-0.41 0.768-0.922 0.947-1.459 0.23-0.691 0.358-1.434 0.333-2.176l-0.051-0.384z"></path>
</svg>
