<?xml version="1.0" encoding="utf-8"?>
<!-- Generated by IcoMoon.io -->
<!DOCTYPE svg PUBLIC "-//W3C//DTD SVG 1.1//EN" "http://www.w3.org/Graphics/SVG/1.1/DTD/svg11.dtd">
<svg version="1.1" xmlns="http://www.w3.org/2000/svg" xmlns:xlink="http://www.w3.org/1999/xlink" width="21" height="32" viewBox="0 0 21 32">
<path fill="#444444" d="M16.013 10.65c0 2.948-2.389 5.338-5.338 5.338s-5.338-2.389-5.338-5.338c0-2.948 2.389-5.338 5.338-5.338 2.948 0.025 5.312 2.389 5.338 5.338zM21.325 10.65c0.025-5.897-4.728-10.701-10.624-10.726s-10.701 4.728-10.726 10.624c0 0.025 0 0.076 0 0.102 0 1.271 0.152 2.593 0.686 3.736l7.6 16.14c0.432 0.915 1.373 1.5 2.364 1.474 1.017 0 1.957-0.559 2.389-1.474l7.574-16.14c0.61-1.144 0.737-2.465 0.737-3.736z"></path>
</svg>
