<?xml version="1.0" encoding="utf-8"?>
<!-- Generated by IcoMoon.io -->
<!DOCTYPE svg PUBLIC "-//W3C//DTD SVG 1.1//EN" "http://www.w3.org/Graphics/SVG/1.1/DTD/svg11.dtd">
<svg version="1.1" xmlns="http://www.w3.org/2000/svg" xmlns:xlink="http://www.w3.org/1999/xlink" width="25" height="32" viewBox="0 0 25 32">
<path fill="#444444" d="M24.909 12.353c0-6.888-5.566-12.454-12.454-12.454s-12.454 5.566-12.454 12.454c0 0.89 0.102 1.779 0.28 2.643v0c1.5 6.659 5.388 12.556 10.904 16.572 0.381 0.28 0.839 0.432 1.296 0.432 0.381 0 0.737-0.102 1.068-0.28 0.127-0.102 0.28-0.203 0.407-0.305 5.388-3.99 9.15-9.76 10.675-16.267v0c0.178-0.915 0.28-1.855 0.28-2.796zM12.454 6.685c3.126 0.025 5.643 2.567 5.617 5.693s-2.567 5.643-5.693 5.617c-3.101-0.025-5.617-2.542-5.617-5.668 0-3.101 2.567-5.643 5.693-5.643z"></path>
</svg>
