<?xml version="1.0" encoding="utf-8"?>
<!-- Generated by IcoMoon.io -->
<!DOCTYPE svg PUBLIC "-//W3C//DTD SVG 1.1//EN" "http://www.w3.org/Graphics/SVG/1.1/DTD/svg11.dtd">
<svg version="1.1" xmlns="http://www.w3.org/2000/svg" xmlns:xlink="http://www.w3.org/1999/xlink" width="37" height="32" viewBox="0 0 37 32">
<path fill="#444444" d="M34.739 2.586c-1.766-1.715-4.198-2.586-7.322-2.586-0.87 0-1.741 0.154-2.637 0.461s-1.741 0.691-2.509 1.203-1.434 0.973-1.997 1.434c-0.563 0.435-1.075 0.922-1.587 1.408-0.512-0.512-1.024-0.973-1.587-1.408s-1.229-0.922-1.997-1.434-1.613-0.922-2.509-1.203c-0.896-0.307-1.766-0.461-2.637-0.461-3.123 0-5.555 0.87-7.322 2.586s-2.637 4.122-2.637 7.168c0 0.922 0.154 1.894 0.486 2.867 0.333 0.998 0.691 1.818 1.126 2.534 0.41 0.691 0.896 1.382 1.408 2.022 0.538 0.666 0.922 1.126 1.152 1.357 0.256 0.256 0.435 0.435 0.563 0.538l13.005 12.544c0.256 0.256 0.563 0.384 0.922 0.384s0.666-0.128 0.922-0.384l13.005-12.518c3.174-3.174 4.787-6.323 4.787-9.395 0-2.995-0.87-5.376-2.637-7.117z"></path>
</svg>
