<?xml version="1.0" encoding="utf-8"?>
<!-- Generated by IcoMoon.io -->
<!DOCTYPE svg PUBLIC "-//W3C//DTD SVG 1.1//EN" "http://www.w3.org/Graphics/SVG/1.1/DTD/svg11.dtd">
<svg version="1.1" xmlns="http://www.w3.org/2000/svg" xmlns:xlink="http://www.w3.org/1999/xlink" width="37" height="32" viewBox="0 0 37 32">
<path fill="#444444" d="M34.765 2.586c-1.766-1.715-4.198-2.586-7.322-2.586-0.87 0-1.741 0.154-2.637 0.461s-1.741 0.691-2.509 1.203-1.434 0.973-1.997 1.434c-0.563 0.435-1.075 0.922-1.587 1.408-0.512-0.512-1.024-0.973-1.587-1.408s-1.229-0.922-1.997-1.434-1.613-0.922-2.509-1.203c-0.896-0.307-1.766-0.461-2.637-0.461-2.355 0-4.301 0.486-5.888 1.459-0.538 0.333-1.024 0.691-1.459 1.126-1.766 1.715-2.637 4.122-2.637 7.168 0 0.922 0.154 1.894 0.486 2.867 0.333 0.998 0.691 1.818 1.126 2.534 0.41 0.691 0.896 1.382 1.408 2.022 0.538 0.666 0.922 1.126 1.152 1.357 0.256 0.256 0.435 0.435 0.563 0.538l13.005 12.544c0.077 0.077 0.154 0.128 0.256 0.179 0.154 0.102 0.333 0.154 0.512 0.179 0.077 0.026 0.128 0.026 0.128 0.026v-0.026h0.026c0.358 0 0.666-0.128 0.922-0.384l13.005-12.518c3.174-3.174 4.787-6.323 4.787-9.395 0.051-2.995-0.845-5.376-2.611-7.091zM30.822 17.178l-12.109 11.648-0.026-0.026v-20.557c0.358-0.307 0.563-0.486 0.973-0.922 0.333-0.384 0.819-0.845 1.331-1.306s1.101-0.973 1.792-1.51c0.691-0.538 1.459-0.973 2.304-1.331s1.613-0.538 2.33-0.538c0.717 0 1.408 0.051 2.048 0.179 0.64 0.102 1.306 0.333 1.971 0.64 0.666 0.333 1.229 0.742 1.69 1.229 0.461 0.512 0.845 1.203 1.152 2.048 0.307 0.87 0.461 1.869 0.461 2.995 0.026 2.355-1.28 4.838-3.917 7.45z"></path>
</svg>
