<?xml version="1.0" encoding="utf-8"?>
<!-- Generated by IcoMoon.io -->
<!DOCTYPE svg PUBLIC "-//W3C//DTD SVG 1.1//EN" "http://www.w3.org/Graphics/SVG/1.1/DTD/svg11.dtd">
<svg version="1.1" xmlns="http://www.w3.org/2000/svg" xmlns:xlink="http://www.w3.org/1999/xlink" width="35" height="32" viewBox="0 0 35 32">
<path fill="#444444" d="M33.117 15.136c-3.327 5.537-8.889 11.911-14.095 15.949-0.838 0.61-1.295 0.889-1.727 0.914-0.457 0-0.889-0.254-1.676-0.863-5.003-3.886-10.667-10.286-13.943-15.949-0.889-1.803-1.676-3.632-1.676-6.171 0-0.152 0-0.305 0-0.432s0-0.305 0.025-0.432 0.051-0.584 0.102-0.864c0.102-0.584 0.254-1.143 0.457-1.676 0.406-1.092 0.99-2.083 1.778-2.946 1.549-1.702 3.759-2.667 6.324-2.667 0.102 0 0.229 0 0.33 0s0.229 0 0.33 0.025 0.432 0.025 0.635 0.051c0.406 0.051 0.813 0.127 1.219 0.203 0.787 0.178 1.524 0.432 2.235 0.787 1.397 0.686 2.692 1.625 3.784 2.743 1.194-1.067 2.514-1.981 3.936-2.717 0.711-0.356 1.473-0.61 2.26-0.813 0.406-0.102 0.813-0.178 1.244-0.229 0.203-0.025 0.432-0.051 0.635-0.051 0.102 0 0.229-0.025 0.33-0.025s0.229 0 0.33 0c5.105-0.127 8.813 4.267 8.787 9.016 0.102 2.184-0.457 4.317-1.625 6.146v0 0zM31.213 14.73c1.422-2.21 1.752-3.759 1.651-5.79-0.152-3.759-3.048-7.162-6.806-7.162-3.149-0.076-6.781 2.87-8.813 5.359-2.108-2.565-5.562-5.46-8.711-5.359-3.886 0.051-6.603 3.403-6.679 7.187-0.051 2.032 0.381 3.479 1.702 5.765 3.479 5.537 9.143 11.632 13.816 15.543 4.825-4.038 10.336-10.108 13.841-15.543v0 0z"></path>
</svg>
