<?xml version="1.0" encoding="utf-8"?>
<!-- Generated by IcoMoon.io -->
<!DOCTYPE svg PUBLIC "-//W3C//DTD SVG 1.1//EN" "http://www.w3.org/Graphics/SVG/1.1/DTD/svg11.dtd">
<svg version="1.1" xmlns="http://www.w3.org/2000/svg" xmlns:xlink="http://www.w3.org/1999/xlink" width="32" height="32" viewBox="0 0 32 32">
<path fill="#444444" d="M16 0c-8.838 0-16 7.162-16 16s7.162 16 16 16c8.838 0 16-7.162 16-16s-7.162-16-16-16c0 0 0 0 0 0zM16 2.286c2.26 0 4.47 0.559 6.451 1.6l-3.454 3.454c-1.93-0.66-4.038-0.66-5.968 0l-3.454-3.454c1.981-1.041 4.19-1.6 6.425-1.6v0zM3.886 22.451c-2.133-4.038-2.133-8.864 0-12.902l3.454 3.454c-0.66 1.93-0.66 4.038 0 5.968l-3.454 3.479zM16 29.714c-2.26 0-4.47-0.559-6.451-1.6l3.454-3.454c1.93 0.66 4.038 0.66 5.968 0l3.454 3.454c-1.956 1.041-4.165 1.6-6.425 1.6zM16 22.857c-3.784 0-6.857-3.073-6.857-6.857s3.073-6.857 6.857-6.857c3.784 0 6.857 3.073 6.857 6.857s-3.073 6.857-6.857 6.857v0zM24.66 18.997c0.66-1.93 0.66-4.038 0-5.968l3.454-3.454c2.133 4.038 2.133 8.864 0 12.902l-3.454-3.479z"></path>
</svg>
