<?xml version="1.0" encoding="utf-8"?>
<!-- Generated by IcoMoon.io -->
<!DOCTYPE svg PUBLIC "-//W3C//DTD SVG 1.1//EN" "http://www.w3.org/Graphics/SVG/1.1/DTD/svg11.dtd">
<svg version="1.1" xmlns="http://www.w3.org/2000/svg" xmlns:xlink="http://www.w3.org/1999/xlink" width="34" height="32" viewBox="0 0 34 32">
<path fill="#444444" d="M16.94 7.721c-0.025 2.133-1.778 3.886-3.911 3.86-0.584 0-1.168-0.127-1.702-0.381 0.254 0.533 0.381 1.092 0.381 1.676 0.025 2.159-1.702 3.936-3.86 3.962s-3.937-1.702-3.962-3.86c-0.025-2.159 1.702-3.937 3.86-3.962 0.025 0 0.025 0 0.051 0 0.584 0 1.168 0.127 1.702 0.381-0.254-0.533-0.381-1.092-0.381-1.676 0.025-2.159 1.778-3.886 3.937-3.886 2.159 0.025 3.886 1.752 3.886 3.886zM34.286 21.867c0-0.584-5.689-5.867-6.425-6.603-0.127-0.127-0.305-0.203-0.457-0.203-0.457 0-2.337 1.854-2.337 2.311 0 0.533 1.905 2.159 2.337 2.565l-1.956 1.93-7.238-7.136c1.6-2.108 2.667-4.673 2.667-7.34 0-4.394-3.073-7.39-7.492-7.39-6.679 0-13.359 6.603-13.359 13.181 0 4.368 3.048 7.39 7.492 7.39 2.692 0 5.308-1.067 7.441-2.641l13.664 13.486c0.381 0.356 0.863 0.559 1.397 0.559 1.143 0 2.438-1.295 2.438-2.413 0-0.508-0.203-1.016-0.559-1.371l-4.47-4.419 1.956-1.93c0.432 0.432 2.083 2.311 2.616 2.311 0.406 0.025 2.286-1.829 2.286-2.286z"></path>
</svg>
