<?xml version="1.0" encoding="utf-8"?>
<!-- Generated by IcoMoon.io -->
<!DOCTYPE svg PUBLIC "-//W3C//DTD SVG 1.1//EN" "http://www.w3.org/Graphics/SVG/1.1/DTD/svg11.dtd">
<svg version="1.1" xmlns="http://www.w3.org/2000/svg" xmlns:xlink="http://www.w3.org/1999/xlink" width="40" height="32" viewBox="0 0 40 32">
<path fill="#444444" d="M9.468 6.76c0 1.494-1.215 2.709-2.709 2.709s-2.709-1.215-2.709-2.709c0-1.494 1.215-2.709 2.709-2.709s2.684 1.215 2.709 2.709c0 0 0 0 0 0zM32 18.937c0-0.709-0.278-1.392-0.785-1.924l-15.114-15.089c-1.266-1.165-2.911-1.823-4.633-1.924h-8.785c-1.494 0-2.684 1.215-2.709 2.709v8.785c0.076 1.722 0.759 3.342 1.924 4.608l15.114 15.114c0.506 0.506 1.19 0.785 1.899 0.785s1.392-0.278 1.924-0.785l10.38-10.38c0.506-0.506 0.785-1.19 0.785-1.899v0zM40.101 18.937c0-0.709-0.278-1.392-0.785-1.924l-15.114-15.089c-1.266-1.165-2.911-1.823-4.633-1.924h-4.734c1.722 0.076 3.342 0.759 4.633 1.924l15.114 15.089c0.506 0.506 0.785 1.215 0.785 1.924s-0.278 1.392-0.785 1.899l-9.924 9.924c0.709 0.734 1.266 1.24 2.354 1.24 0.709 0 1.392-0.278 1.924-0.785l10.38-10.38c0.506-0.506 0.785-1.19 0.785-1.899v0z"></path>
</svg>
