<?xml version="1.0" encoding="utf-8"?>
<!-- Generated by IcoMoon.io -->
<!DOCTYPE svg PUBLIC "-//W3C//DTD SVG 1.1//EN" "http://www.w3.org/Graphics/SVG/1.1/DTD/svg11.dtd">
<svg version="1.1" xmlns="http://www.w3.org/2000/svg" xmlns:xlink="http://www.w3.org/1999/xlink" width="26" height="32" viewBox="0 0 26 32">
<path fill="#444444" d="M7.263 14.552v-4.368c0-3.2 2.59-5.816 5.816-5.816s5.816 2.59 5.816 5.816v4.368h-11.632zM26.159 16.736c0-1.194-0.965-2.184-2.184-2.184h-0.736v-4.368c0-5.613-4.546-10.184-10.159-10.184s-10.184 4.546-10.184 10.159c0 0 0 0 0 0v4.368h-0.736c-1.194 0-2.184 0.965-2.184 2.184v13.079c0 1.194 0.965 2.184 2.184 2.184h21.79c1.194 0 2.184-0.965 2.184-2.184v-13.054z"></path>
</svg>
