<?xml version="1.0" encoding="utf-8"?>
<!-- Generated by IcoMoon.io -->
<!DOCTYPE svg PUBLIC "-//W3C//DTD SVG 1.1//EN" "http://www.w3.org/Graphics/SVG/1.1/DTD/svg11.dtd">
<svg version="1.1" xmlns="http://www.w3.org/2000/svg" xmlns:xlink="http://www.w3.org/1999/xlink" width="31" height="32" viewBox="0 0 31 32">
<path fill="#444444" d="M2.768 0h25.727c1.498 0 2.743 1.219 2.743 2.743s-1.219 2.743-2.743 2.743h-25.727c-1.498 0-2.743-1.219-2.743-2.743s1.219-2.743 2.743-2.743zM2.768 26.54h25.727c1.498 0 2.743 1.219 2.743 2.743s-1.219 2.743-2.743 2.743h-25.727c-1.498 0-2.743-1.219-2.743-2.743s1.219-2.743 2.743-2.743zM2.768 13.257h25.727c1.498 0 2.743 1.219 2.743 2.743s-1.219 2.743-2.743 2.743h-25.727c-1.498 0-2.743-1.219-2.743-2.743s1.219-2.743 2.743-2.743z"></path>
</svg>
