<?xml version="1.0" encoding="utf-8"?>
<!-- Generated by IcoMoon.io -->
<!DOCTYPE svg PUBLIC "-//W3C//DTD SVG 1.1//EN" "http://www.w3.org/Graphics/SVG/1.1/DTD/svg11.dtd">
<svg version="1.1" xmlns="http://www.w3.org/2000/svg" xmlns:xlink="http://www.w3.org/1999/xlink" width="31" height="32" viewBox="0 0 31 32">
<path fill="#444444" d="M23.797 25.448c2.971-1.702 4.952-4.622 4.952-7.949-0.025-2.057-0.762-4.064-2.133-5.638 0.102-0.61 0.152-1.244 0.152-1.879 0-0.279-0.025-0.584-0.051-0.864 2.463 2.083 4.013 5.003 4.013 8.229 0 3.632-1.956 6.883-4.952 8.965v5.689l-5.562-3.454c-0.787 0.127-1.575 0.203-2.362 0.203-3.81 0-6.248-1.473-8.61-3.81 0.381 0.025 0.762 0.051 1.168 0.051 0.559 0 1.092-0.025 1.651-0.076 1.854 1.295 3.225 2.083 5.79 2.083 0.863 0 1.727-0.102 2.565-0.279l3.378 2.286v-3.556zM12.876 23.010c-1.117-0.025-2.235-0.102-3.327-0.254l-5.587 3.251v-5.689c-2.59-2.235-3.962-5.308-3.962-8.965 0-6.273 5.765-11.378 12.876-11.378 5.917 0 11.886 5.105 11.886 11.378s-4.775 11.657-11.886 11.657v0zM9.321 20.724c1.168 0.178 2.362 0.279 3.556 0.279 6.019 0 9.905-4.241 9.905-9.498s-4.978-9.498-9.905-9.498c-6.197 0-10.895 4.267-10.895 9.498 0 3.327 1.549 5.968 3.962 7.949v3.53l3.378-2.26zM18.337 13.003c-0.838 0-1.498-0.66-1.524-1.498s0.66-1.498 1.498-1.524c0.838 0 1.498 0.66 1.524 1.498 0 0 0 0 0 0 0 0.838-0.686 1.524-1.498 1.524 0 0 0 0 0 0v0zM12.394 13.003c-0.838 0-1.498-0.66-1.524-1.473 0-0.838 0.66-1.498 1.473-1.524 0.838 0 1.498 0.66 1.524 1.473 0 0 0 0 0 0.025 0 0.813-0.66 1.498-1.473 1.498v0zM6.451 13.003c-0.838 0-1.498-0.66-1.524-1.498 0-0.838 0.66-1.498 1.498-1.524 0.838 0 1.498 0.66 1.524 1.498 0 0 0 0 0 0.025-0.025 0.813-0.686 1.498-1.498 1.498v0z"></path>
</svg>
