<?xml version="1.0" encoding="utf-8"?>
<!-- Generated by IcoMoon.io -->
<!DOCTYPE svg PUBLIC "-//W3C//DTD SVG 1.1//EN" "http://www.w3.org/Graphics/SVG/1.1/DTD/svg11.dtd">
<svg version="1.1" xmlns="http://www.w3.org/2000/svg" xmlns:xlink="http://www.w3.org/1999/xlink" width="41" height="32" viewBox="0 0 41 32">
<path fill="#444444" d="M41.143 10.311c-0.686 0.736-1.448 1.397-2.286 1.981-3.835 2.565-7.695 5.156-11.429 7.848-1.93 1.397-4.317 3.124-6.806 3.124h-0.051c-2.514 0-4.902-1.727-6.806-3.124-3.733-2.692-7.594-5.283-11.403-7.848-0.838-0.559-1.625-1.219-2.311-1.981v18.057c0.025 2.006 1.651 3.632 3.683 3.632h33.803c2.006 0 3.657-1.625 3.683-3.632v-18.057zM41.143 3.632c-0.025-2.006-1.651-3.632-3.683-3.632h-33.803c-2.463 0-3.683 1.905-3.683 4.14 0 2.057 2.311 4.648 3.937 5.714 3.556 2.463 7.162 4.902 10.717 7.39 1.498 1.016 4.013 3.124 5.867 3.124h0.051c1.854 0 4.394-2.083 5.867-3.124 3.556-2.489 7.162-4.927 10.743-7.39 2.083-1.371 3.987-3.683 3.987-6.222v0z"></path>
</svg>
