<?xml version="1.0" encoding="utf-8"?>
<!-- Generated by IcoMoon.io -->
<!DOCTYPE svg PUBLIC "-//W3C//DTD SVG 1.1//EN" "http://www.w3.org/Graphics/SVG/1.1/DTD/svg11.dtd">
<svg version="1.1" xmlns="http://www.w3.org/2000/svg" xmlns:xlink="http://www.w3.org/1999/xlink" width="32" height="32" viewBox="0 0 32 32">
<path fill="#444444" d="M7.68 29.286h-2.253v-2.714h-2.714v-2.253l1.92-1.92 4.966 4.966-1.92 1.92zM18.714 9.702c0 0.128-0.051 0.256-0.154 0.358l-11.443 11.443c-0.102 0.102-0.23 0.154-0.358 0.154-0.256 0-0.461-0.179-0.461-0.41 0-0.026 0-0.026 0-0.051 0-0.128 0.051-0.256 0.154-0.358l11.443-11.443c0.102-0.102 0.23-0.154 0.358-0.154 0.256 0 0.461 0.179 0.461 0.41 0 0 0 0.026 0 0.051v0zM17.587 5.632l-17.587 17.562v8.806h8.781l17.562-17.562-8.755-8.806zM32 7.654c0-0.717-0.282-1.408-0.794-1.92l-4.966-4.941c-0.512-0.512-1.203-0.794-1.92-0.794s-1.408 0.282-1.894 0.794l-3.507 3.482 8.781 8.781 3.507-3.507c0.512-0.486 0.794-1.178 0.794-1.894z"></path>
</svg>
