<?xml version="1.0" encoding="utf-8"?>
<!-- Generated by IcoMoon.io -->
<!DOCTYPE svg PUBLIC "-//W3C//DTD SVG 1.1//EN" "http://www.w3.org/Graphics/SVG/1.1/DTD/svg11.dtd">
<svg version="1.1" xmlns="http://www.w3.org/2000/svg" xmlns:xlink="http://www.w3.org/1999/xlink" width="37" height="32" viewBox="0 0 37 32">
<path fill="#444444" d="M18.286 12.927c-3.048-0.025-5.562 2.438-5.587 5.486s2.438 5.562 5.486 5.587c3.048 0.025 5.562-2.438 5.587-5.486 0-0.025 0-0.025 0-0.051 0-3.048-2.438-5.537-5.486-5.537zM31.695 4.927h-4.267l-0.965-2.616c-0.483-1.27-1.956-2.311-3.302-2.311h-9.752c-1.346 0-2.819 1.041-3.302 2.311l-0.965 2.616h-4.267c-2.692 0.025-4.876 2.21-4.876 4.927v17.244c0 2.692 2.184 4.902 4.876 4.927h26.819c2.692-0.025 4.876-2.21 4.876-4.927v-17.244c0-2.717-2.184-4.902-4.876-4.927v0zM18.286 27.073c-4.749 0.051-8.66-3.784-8.711-8.533s3.784-8.66 8.533-8.711c4.749-0.051 8.66 3.784 8.711 8.533 0 0.025 0 0.051 0 0.076 0.025 4.749-3.81 8.61-8.533 8.635v0z"></path>
</svg>
