<?xml version="1.0" encoding="utf-8"?>
<!-- Generated by IcoMoon.io -->
<!DOCTYPE svg PUBLIC "-//W3C//DTD SVG 1.1//EN" "http://www.w3.org/Graphics/SVG/1.1/DTD/svg11.dtd">
<svg version="1.1" xmlns="http://www.w3.org/2000/svg" xmlns:xlink="http://www.w3.org/1999/xlink" width="32" height="32" viewBox="0 0 32 32">
<path fill="#444444" d="M13.714 23.771l6.4 6.4-6.375-6.425z"></path>
<path fill="#444444" d="M27.987 0h-24c-2.21 0-3.987 1.803-3.987 4.013v24c0 2.21 1.803 3.987 4.013 3.987h24c2.21 0 3.987-1.803 3.987-4.013v-24c0-2.21-1.803-3.987-4.013-3.987zM8.178 4.064c2.108 0 3.835 1.702 3.835 3.835s-1.702 3.835-3.835 3.835c-2.108 0-3.835-1.702-3.835-3.835s1.727-3.835 3.835-3.835zM29.994 28.013v0c0 1.117-0.889 2.006-2.006 2.006l-7.898 0.178-16.102-0.178c-1.117 0-2.006-0.889-2.006-2.006v0-0.94l7.949-7.111 3.784 3.81 10.26-9.752 5.994 5.994v8h0.025z"></path>
</svg>
