<?xml version="1.0" encoding="utf-8"?>
<!-- Generated by IcoMoon.io -->
<!DOCTYPE svg PUBLIC "-//W3C//DTD SVG 1.1//EN" "http://www.w3.org/Graphics/SVG/1.1/DTD/svg11.dtd">
<svg version="1.1" xmlns="http://www.w3.org/2000/svg" xmlns:xlink="http://www.w3.org/1999/xlink" width="41" height="32" viewBox="0 0 41 32">
<path fill="#444444" d="M37.257 0h-33.854c-1.854 0-3.378 1.473-3.378 3.327v25.346c0.025 1.854 1.524 3.352 3.378 3.327h33.854c1.854 0 3.378-1.473 3.378-3.327v-25.346c-0.025-1.854-1.524-3.352-3.378-3.327zM9.524 5.206c2.26 0.025 4.038 1.879 4.013 4.114 0 2.235-1.829 4.038-4.064 4.013 0 0-0.025 0-0.051 0-2.26-0.025-4.038-1.854-4.013-4.114s1.879-4.038 4.114-4.013zM35.175 17.321v9.346h-29.79v-3.987l6.806-6.679 3.378 3.327 10.844-10.667 8.813 8.66h-0.051z"></path>
</svg>
