<?xml version="1.0" encoding="utf-8"?>
<!-- Generated by IcoMoon.io -->
<!DOCTYPE svg PUBLIC "-//W3C//DTD SVG 1.1//EN" "http://www.w3.org/Graphics/SVG/1.1/DTD/svg11.dtd">
<svg version="1.1" xmlns="http://www.w3.org/2000/svg" xmlns:xlink="http://www.w3.org/1999/xlink" width="41" height="32" viewBox="0 0 41 32">
<path fill="#444444" d="M13.537 9.321c0.025-2.235-1.752-4.089-4.013-4.114-2.235-0.025-4.089 1.752-4.114 4.013s1.752 4.089 4.013 4.114c0.025 0 0.051 0 0.051 0 2.235 0.025 4.064-1.778 4.064-4.013zM35.225 17.321l-8.813-8.66-10.844 10.667-3.378-3.327-6.781 6.679v3.987h29.79v-9.346h0.025zM37.257 2.667c0.356 0 0.66 0.305 0.686 0.66v25.346c-0.025 0.356-0.305 0.66-0.686 0.66h-33.854c-0.356 0-0.66-0.305-0.686-0.66v-25.346c0.025-0.356 0.305-0.66 0.686-0.66h33.854zM40.635 3.327c-0.025-1.854-1.524-3.352-3.378-3.327h-33.854c-1.854 0-3.378 1.473-3.378 3.327v25.346c0.025 1.854 1.524 3.352 3.378 3.327h33.854c1.854 0 3.378-1.473 3.378-3.327v-25.346z"></path>
</svg>
