<?xml version="1.0" encoding="utf-8"?>
<!-- Generated by IcoMoon.io -->
<!DOCTYPE svg PUBLIC "-//W3C//DTD SVG 1.1//EN" "http://www.w3.org/Graphics/SVG/1.1/DTD/svg11.dtd">
<svg version="1.1" xmlns="http://www.w3.org/2000/svg" xmlns:xlink="http://www.w3.org/1999/xlink" width="29" height="32" viewBox="0 0 29 32">
<path fill="#444444" d="M29.206 17.219c0.025-4.622-2.133-8.99-5.841-11.784-1.041-0.813-2.54-0.635-3.352 0.432-0.025 0.025-0.025 0.051-0.051 0.051-0.813 1.092-0.61 2.616 0.483 3.454 2.463 1.854 3.911 4.775 3.886 7.873 0 5.435-4.368 9.854-9.727 9.854s-9.727-4.419-9.727-9.854c0-3.098 1.422-5.994 3.886-7.873 1.067-0.813 1.295-2.362 0.483-3.454-0.787-1.067-2.26-1.295-3.327-0.533-0.025 0.025-0.051 0.025-0.076 0.051-3.708 2.794-5.867 7.162-5.841 11.784 0 8.127 6.552 14.781 14.603 14.781s14.603-6.629 14.603-14.781zM17.041 2.463c0.025-1.346-1.067-2.438-2.387-2.463s-2.438 1.067-2.463 2.387c0 0.025 0 0.051 0 0.076v12.317c-0.025 1.346 1.067 2.438 2.387 2.463s2.438-1.067 2.463-2.387c0-0.025 0-0.051 0-0.076v-12.317z"></path>
</svg>
