<?xml version="1.0" encoding="utf-8"?>
<!-- Generated by IcoMoon.io -->
<!DOCTYPE svg PUBLIC "-//W3C//DTD SVG 1.1//EN" "http://www.w3.org/Graphics/SVG/1.1/DTD/svg11.dtd">
<svg version="1.1" xmlns="http://www.w3.org/2000/svg" xmlns:xlink="http://www.w3.org/1999/xlink" width="39" height="32" viewBox="0 0 39 32">
<path fill="#444444" d="M4.089 12.292h6.197l5.765 12.8-11.962-12.8zM19.683 27.149l-6.705-14.857h13.41l-6.705 14.857zM10.336 9.854h-6.654l5.537-7.39h5.029l-3.911 7.39zM23.314 25.092l5.765-12.8h6.197l-11.962 12.8zM13.13 9.854l3.911-7.39h5.257l3.911 7.39h-13.079zM29.029 9.854l-3.911-7.39h5.029l5.537 7.39h-6.654zM31.746 0.483c-0.229-0.305-0.584-0.508-0.99-0.508h-22.146c-0.381 0-0.762 0.178-0.99 0.508l-7.39 9.854c-0.356 0.483-0.33 1.143 0.076 1.575l18.463 19.708c0.483 0.508 1.27 0.508 1.778 0.025 0 0 0.025-0.025 0.025-0.025l18.464-19.708c0.406-0.432 0.432-1.092 0.076-1.575l-7.365-9.854z"></path>
</svg>
