<?xml version="1.0" encoding="utf-8"?>
<!-- Generated by IcoMoon.io -->
<!DOCTYPE svg PUBLIC "-//W3C//DTD SVG 1.1//EN" "http://www.w3.org/Graphics/SVG/1.1/DTD/svg11.dtd">
<svg version="1.1" xmlns="http://www.w3.org/2000/svg" xmlns:xlink="http://www.w3.org/1999/xlink" width="30" height="32" viewBox="0 0 30 32">
<path fill="#444444" d="M29.714 26.59c0-4.698-1.117-11.937-7.289-11.937-0.66 0-3.429 2.895-7.543 2.895s-6.908-2.895-7.543-2.895c-6.171 0-7.289 7.238-7.289 11.937 0 3.378 2.286 5.41 5.638 5.41h18.438c3.302 0 5.587-2.032 5.587-5.41zM22.959 8c0.051-4.47-3.53-8.152-8-8.203s-8.152 3.53-8.203 8 3.53 8.152 8 8.203c0.025 0 0.076 0 0.102 0 4.444 0.025 8.076-3.556 8.102-8z"></path>
</svg>
