<?xml version="1.0" encoding="utf-8"?>
<!-- Generated by IcoMoon.io -->
<!DOCTYPE svg PUBLIC "-//W3C//DTD SVG 1.1//EN" "http://www.w3.org/Graphics/SVG/1.1/DTD/svg11.dtd">
<svg version="1.1" xmlns="http://www.w3.org/2000/svg" xmlns:xlink="http://www.w3.org/1999/xlink" width="22" height="32" viewBox="0 0 22 32">
<path fill="#444444" d="M16.254 32h-10.159c-3.352 0.025-6.070-2.667-6.095-5.994v-4.013c0-1.829 0.864-3.581 2.337-4.673 2.032 2.844 5.232 4.673 8.838 4.673s6.806-1.829 8.838-4.673c1.473 1.117 2.337 2.844 2.337 4.673v4.013c-0.025 3.327-2.743 6.019-6.095 5.994zM11.175 0c5.054 0 9.143 4.47 9.143 10.006s-4.089 10.006-9.143 10.006-9.143-4.47-9.143-10.006 4.089-10.006 9.143-10.006z"></path>
</svg>
