<?xml version="1.0" encoding="utf-8"?>
<!-- Generated by IcoMoon.io -->
<!DOCTYPE svg PUBLIC "-//W3C//DTD SVG 1.1//EN" "http://www.w3.org/Graphics/SVG/1.1/DTD/svg11.dtd">
<svg version="1.1" xmlns="http://www.w3.org/2000/svg" xmlns:xlink="http://www.w3.org/1999/xlink" width="32" height="32" viewBox="0 0 32 32">
<path fill="#444444" d="M27.581 6.273c0 1.041-0.838 1.879-1.879 1.879s-1.879-0.838-1.879-1.879c0-1.041 0.838-1.879 1.879-1.879s1.879 0.838 1.879 1.879zM31.975 0.61c-0.025-0.356-0.305-0.635-0.66-0.635-6.832 0-10.565 1.575-15.467 6.451-1.117 1.143-2.286 2.438-3.454 3.835l-7.416 0.381c-0.203 0.025-0.381 0.127-0.508 0.305l-4.394 7.543c-0.127 0.254-0.102 0.559 0.102 0.762l1.244 1.244c0.127 0.127 0.279 0.178 0.457 0.178 0.051 0 0.127 0 0.178-0.025l5.41-1.676 5.511 5.511-1.676 5.41c-0.051 0.229 0 0.457 0.152 0.635l1.244 1.244c0.127 0.102 0.279 0.178 0.457 0.178 0.102 0 0.229-0.025 0.305-0.076l7.517-4.394c0.178-0.127 0.279-0.305 0.305-0.508l0.381-7.441c1.397-1.168 2.692-2.337 3.81-3.454 4.698-4.597 6.502-8.94 6.502-15.467v0z"></path>
</svg>
