<?xml version="1.0" encoding="utf-8"?>
<!-- Generated by IcoMoon.io -->
<!DOCTYPE svg PUBLIC "-//W3C//DTD SVG 1.1//EN" "http://www.w3.org/Graphics/SVG/1.1/DTD/svg11.dtd">
<svg version="1.1" xmlns="http://www.w3.org/2000/svg" xmlns:xlink="http://www.w3.org/1999/xlink" width="32" height="32" viewBox="0 0 32 32">
<path fill="#444444" d="M22.154 13.551c0 4.745-3.857 8.603-8.603 8.603s-8.603-3.857-8.603-8.603c0-4.745 3.857-8.603 8.603-8.603 4.745-0.025 8.603 3.832 8.603 8.603zM32 29.538c0-0.66-0.254-1.269-0.711-1.726l-6.598-6.598c4.238-6.167 2.665-14.592-3.477-18.829-6.167-4.238-14.592-2.665-18.829 3.477-4.238 6.167-2.665 14.592 3.477 18.829 4.619 3.172 10.709 3.172 15.328 0l6.598 6.573c0.457 0.457 1.091 0.736 1.726 0.736 1.37 0 2.462-1.117 2.487-2.462v0z"></path>
</svg>
