<?xml version="1.0" encoding="utf-8"?>
<!-- Generated by IcoMoon.io -->
<!DOCTYPE svg PUBLIC "-//W3C//DTD SVG 1.1//EN" "http://www.w3.org/Graphics/SVG/1.1/DTD/svg11.dtd">
<svg version="1.1" xmlns="http://www.w3.org/2000/svg" xmlns:xlink="http://www.w3.org/1999/xlink" width="32" height="32" viewBox="0 0 32 32">
<path fill="#444444" d="M31.517 0.178c-0.178-0.127-0.406-0.203-0.635-0.203-0.203 0-0.406 0.051-0.584 0.152l-29.714 17.143c-0.381 0.229-0.584 0.635-0.584 1.041 0.025 0.432 0.305 0.813 0.711 0.99l7.060 2.895 19.098-16.533-15.441 18.971v6.222c0 0.483 0.305 0.914 0.736 1.067 0.127 0.051 0.254 0.076 0.406 0.076 0.33 0 0.66-0.152 0.864-0.406l4.317-5.257 8.102 3.302c0.127 0.051 0.279 0.076 0.432 0.102 0.203 0 0.381-0.051 0.559-0.152 0.305-0.178 0.508-0.457 0.584-0.813l4.571-27.429c0.076-0.457-0.127-0.914-0.483-1.168z"></path>
</svg>
