<?xml version="1.0" encoding="utf-8"?>
<!-- Generated by IcoMoon.io -->
<!DOCTYPE svg PUBLIC "-//W3C//DTD SVG 1.1//EN" "http://www.w3.org/Graphics/SVG/1.1/DTD/svg11.dtd">
<svg version="1.1" xmlns="http://www.w3.org/2000/svg" xmlns:xlink="http://www.w3.org/1999/xlink" width="32" height="32" viewBox="0 0 32 32">
<path fill="#444444" d="M21.139 16.013c-0.025 2.918-2.411 5.278-5.329 5.253s-5.278-2.411-5.253-5.329c0.025-2.893 2.385-5.253 5.278-5.253 2.944 0 5.304 2.385 5.304 5.329zM31.721 13.729c0-0.355-0.254-0.685-0.609-0.761l-3.781-0.584c-0.228-0.711-0.508-1.396-0.837-2.030 0.711-0.99 1.472-1.903 2.157-2.842 0.102-0.127 0.152-0.305 0.178-0.482 0-0.152-0.051-0.33-0.152-0.457-0.863-1.218-2.309-2.512-3.4-3.553-0.152-0.127-0.33-0.203-0.508-0.203s-0.355 0.051-0.508 0.178l-2.944 2.233c-0.609-0.305-1.218-0.558-1.852-0.761l-0.584-3.832c-0.051-0.355-0.381-0.634-0.736-0.634h-4.593c-0.355 0-0.66 0.228-0.736 0.584-0.279 1.269-0.482 2.563-0.609 3.883-0.634 0.203-1.269 0.482-1.878 0.787l-2.842-2.233c-0.152-0.127-0.33-0.203-0.533-0.203-0.711 0-3.502 3.045-3.984 3.73-0.102 0.127-0.178 0.305-0.178 0.482s0.076 0.355 0.203 0.508c0.761 0.939 1.497 1.878 2.208 2.868-0.33 0.609-0.609 1.243-0.812 1.929l-3.832 0.584c-0.33 0.101-0.558 0.406-0.558 0.761v4.619c0 0.355 0.254 0.685 0.609 0.761l3.781 0.558c0.203 0.711 0.508 1.396 0.837 2.055-0.711 0.99-1.472 1.903-2.157 2.842-0.102 0.127-0.152 0.305-0.178 0.482 0 0.178 0.051 0.33 0.152 0.482 0.863 1.218 2.309 2.487 3.4 3.502 0.127 0.152 0.33 0.228 0.508 0.228s0.381-0.076 0.508-0.178l2.918-2.233c0.609 0.305 1.218 0.558 1.852 0.761l0.584 3.832c0.051 0.355 0.381 0.634 0.736 0.634h4.593c0.355 0 0.66-0.228 0.736-0.584 0.279-1.269 0.482-2.563 0.609-3.883 0.634-0.203 1.269-0.482 1.878-0.787l2.842 2.259c0.152 0.102 0.355 0.178 0.533 0.178 0.711 0 3.502-3.071 3.984-3.73 0.127-0.127 0.178-0.305 0.178-0.482 0-0.203-0.076-0.381-0.203-0.533-0.761-0.939-1.497-1.852-2.208-2.868 0.33-0.609 0.584-1.243 0.812-1.903l3.832-0.584c0.33-0.102 0.558-0.406 0.584-0.761v-4.619z"></path>
</svg>
