<?xml version="1.0" encoding="utf-8"?>
<!-- Generated by IcoMoon.io -->
<!DOCTYPE svg PUBLIC "-//W3C//DTD SVG 1.1//EN" "http://www.w3.org/Graphics/SVG/1.1/DTD/svg11.dtd">
<svg version="1.1" xmlns="http://www.w3.org/2000/svg" xmlns:xlink="http://www.w3.org/1999/xlink" width="32" height="32" viewBox="0 0 32 32">
<path fill="#444444" d="M15.975 0c-8.824 0-16 7.151-16 16s7.151 16 16 16c8.849 0 16-7.176 16-16 0.025-8.824-7.125-16-16-16zM10.7 8.013c1.471 0 2.662 1.192 2.662 2.662-0.025 1.471-1.217 2.662-2.662 2.662-1.471 0-2.662-1.192-2.662-2.662s1.192-2.662 2.662-2.662zM23.632 19.727c-0.786 2.51-2.738 4.463-5.223 5.249-4.209 1.293-8.697-1.040-10.016-5.249 0-0.025 0-0.025 0-0.025-0.203-0.71 0.178-1.471 0.887-1.674s1.471 0.177 1.674 0.887c0.507 1.648 1.826 2.941 3.474 3.474 2.789 0.887 5.781-0.659 6.669-3.474 0.203-0.71 0.964-1.090 1.674-0.862 0.685 0.228 1.065 0.989 0.862 1.674zM21.35 13.338c-1.471 0-2.662-1.192-2.662-2.662s1.192-2.662 2.662-2.662 2.662 1.192 2.662 2.662c0 1.471-1.192 2.662-2.662 2.662z"></path>
</svg>
