<?xml version="1.0" encoding="utf-8"?>
<!-- Generated by IcoMoon.io -->
<!DOCTYPE svg PUBLIC "-//W3C//DTD SVG 1.1//EN" "http://www.w3.org/Graphics/SVG/1.1/DTD/svg11.dtd">
<svg version="1.1" xmlns="http://www.w3.org/2000/svg" xmlns:xlink="http://www.w3.org/1999/xlink" width="32" height="32" viewBox="0 0 32 32">
<path fill="#444444" d="M23.607 19.727c0.228-0.685-0.152-1.445-0.862-1.674 0 0 0 0 0 0-0.71-0.228-1.471 0.152-1.674 0.862 0 0 0 0 0 0-0.887 2.815-3.88 4.361-6.669 3.474-1.648-0.532-2.967-1.826-3.474-3.474-0.203-0.71-0.964-1.090-1.674-0.887s-1.090 0.964-0.887 1.674c0 0 0 0 0 0.025 1.319 4.209 5.807 6.542 10.016 5.249 2.485-0.786 4.437-2.739 5.223-5.249zM13.338 10.675c0-1.471-1.192-2.662-2.662-2.662s-2.662 1.192-2.662 2.662c0 1.471 1.192 2.662 2.662 2.662 1.445 0 2.637-1.192 2.662-2.662 0 0 0 0 0 0zM23.987 10.675c0-1.471-1.192-2.662-2.662-2.662s-2.662 1.192-2.662 2.662c0 1.471 1.192 2.662 2.662 2.662 0 0 0 0 0 0 1.471 0 2.662-1.192 2.662-2.662 0 0 0 0 0 0zM29.312 16c0 7.353-5.959 13.338-13.338 13.338s-13.338-5.959-13.338-13.338c0-7.353 5.959-13.338 13.338-13.338 0 0 0 0 0 0 7.379 0.025 13.338 5.984 13.338 13.338v0zM31.975 16c0-8.824-7.151-16-16-16-8.824 0-16 7.151-16 16s7.151 16 16 16c0 0 0 0 0 0 8.849 0 16-7.176 16-16v0z"></path>
</svg>
