<?xml version="1.0" encoding="utf-8"?>
<!-- Generated by IcoMoon.io -->
<!DOCTYPE svg PUBLIC "-//W3C//DTD SVG 1.1//EN" "http://www.w3.org/Graphics/SVG/1.1/DTD/svg11.dtd">
<svg version="1.1" xmlns="http://www.w3.org/2000/svg" xmlns:xlink="http://www.w3.org/1999/xlink" width="34" height="32" viewBox="0 0 34 32">
<path fill="#444444" d="M33.559 12.399c0-0.495-0.371-0.817-1.138-0.916l-10.122-1.46-4.529-9.182c-0.247-0.544-0.594-0.817-0.99-0.817s-0.742 0.272-0.99 0.817l-4.529 9.182-10.122 1.46c-0.742 0.124-1.138 0.421-1.138 0.916 0 0.272 0.173 0.594 0.495 0.965l7.35 7.128-1.732 10.073c-0.025 0.198-0.050 0.322-0.050 0.396 0 0.272 0.074 0.52 0.223 0.718s0.346 0.297 0.643 0.297c0.247 0 0.52-0.074 0.817-0.247l9.058-4.752 9.058 4.752c0.272 0.173 0.544 0.247 0.817 0.247s0.47-0.099 0.619-0.297 0.223-0.445 0.223-0.718c0-0.173 0-0.297-0.025-0.396l-1.732-10.073 7.326-7.128c0.297-0.346 0.47-0.668 0.47-0.965z"></path>
</svg>
