<?xml version="1.0" encoding="utf-8"?>
<!-- Generated by IcoMoon.io -->
<!DOCTYPE svg PUBLIC "-//W3C//DTD SVG 1.1//EN" "http://www.w3.org/Graphics/SVG/1.1/DTD/svg11.dtd">
<svg version="1.1" xmlns="http://www.w3.org/2000/svg" xmlns:xlink="http://www.w3.org/1999/xlink" width="34" height="32" viewBox="0 0 34 32">
<path fill="#444444" d="M33.51 12.176c-0.124-0.371-0.495-0.594-1.089-0.693l-10.122-1.46-4.529-9.182c-0.272-0.544-0.619-0.817-0.99-0.817-0.396 0-0.718 0.272-0.99 0.817l-4.529 9.182-10.122 1.46c-0.594 0.099-0.965 0.322-1.089 0.693s0.025 0.767 0.47 1.188l7.35 7.128-1.732 10.073c-0.074 0.445-0.025 0.792 0.124 1.039s0.371 0.371 0.693 0.371c0.223 0 0.495-0.074 0.817-0.247l9.058-4.752 9.058 4.752c0.297 0.173 0.569 0.247 0.817 0.247 0.322 0 0.544-0.124 0.693-0.371s0.198-0.594 0.124-1.039l-1.732-10.073 7.326-7.128c0.346-0.421 0.52-0.817 0.396-1.188zM23.907 18.66l-0.99 0.94 0.247 1.336 1.213 7.152-6.41-3.391-1.188-0.619v-19.428l3.217 6.484 0.594 1.213 1.336 0.198 7.177 1.039-5.197 5.073z"></path>
</svg>
