<?xml version="1.0" encoding="utf-8"?>
<!-- Generated by IcoMoon.io -->
<!DOCTYPE svg PUBLIC "-//W3C//DTD SVG 1.1//EN" "http://www.w3.org/Graphics/SVG/1.1/DTD/svg11.dtd">
<svg version="1.1" xmlns="http://www.w3.org/2000/svg" xmlns:xlink="http://www.w3.org/1999/xlink" width="24" height="32" viewBox="0 0 24 32">
<path fill="#444444" d="M21.909 15.987h-15.276v-6.659c-0.025-2.923 2.338-5.338 5.261-5.338 2.923-0.025 5.338 2.338 5.338 5.261 0 0.025 0 0.051 0 0.076 0 0.737 0.585 1.322 1.322 1.322h1.322c0.737 0 1.322-0.61 1.322-1.322 0.025-5.134-4.118-9.303-9.252-9.353-5.134-0.025-9.303 4.118-9.353 9.252 0 0.025 0 0.076 0 0.102v6.659h-0.661c-1.093 0-1.983 0.89-1.983 2.008 0 0 0 0 0 0v11.997c0 1.093 0.89 2.008 1.983 2.008h19.901c1.093 0 1.983-0.89 1.983-2.008v-11.997c0.076-1.093-0.813-2.008-1.906-2.008 0 0 0 0 0 0z"></path>
</svg>
