<?xml version="1.0" standalone="no"?>
<!DOCTYPE svg PUBLIC "-//W3C//DTD SVG 1.1//EN" "http://www.w3.org/Graphics/SVG/1.1/DTD/svg11.dtd" >
<svg xmlns="http://www.w3.org/2000/svg">
<metadata>Generated by IcoMoon</metadata>
<defs>
<font id="icons0008" horiz-adv-x="1024">
<font-face units-per-em="1024" ascent="960" descent="-64" />
<missing-glyph horiz-adv-x="1024" />
<glyph unicode="&#x20;" horiz-adv-x="512" d="" />
<glyph unicode="&#xe900;" glyph-name="heartbeat" d="M448.953 258.836l-114.406 285.969-40.93-122.813h-232.75c62.375-96.859 170.563-189.352 307.133-305.719 39.055-33.281 80.602-68.672 124.258-106.875l19.742-17.289 19.75 17.289c43.648 38.203 85.195 73.594 124.25 106.875 136.57 116.367 244.758 208.867 307.133 305.719h-432.586zM754.117 902c-122.875-0.438-201.102-84.203-242.117-161.047-40.812 76.375-118.711 161.047-240.063 161.047-0.703 0-1.375 0-2.047 0-142.773-1.141-262.258-122.93-269.523-277.266-2.422-51.344 7.133-98.023 26.32-142.742h223.688l79.070 237.195 125.602-314.008 38.406 76.813h503.852c19.195 44.719 28.75 91.398 26.32 142.742-7.258 154.336-126.742 276.125-269.508 277.266z" />
<glyph unicode="&#xe901;" glyph-name="lock" d="M874.666 576h-64v85.334c0 164.686-133.978 298.666-298.666 298.666s-298.666-133.98-298.666-298.666v-85.334h-64c-11.792 0-21.334-9.542-21.334-21.334v-533.334c0-47.062 38.27-85.332 85.334-85.332h597.334c47.062 0 85.332 38.27 85.332 85.334v533.332c0 11.792-9.542 21.334-21.334 21.334zM575.876 130.354c0.666-6.020-1.27-12.062-5.312-16.584-4.042-4.52-9.834-7.104-15.896-7.104h-85.334c-6.062 0-11.854 2.584-15.896 7.104s-5.98 10.562-5.312 16.584l13.458 121.020c-21.854 15.896-34.916 41.042-34.916 68.626 0 47.062 38.27 85.334 85.334 85.334s85.334-38.27 85.334-85.334c0-27.584-13.062-52.73-34.916-68.626l13.456-121.020zM682.666 576h-341.332v85.334c0 94.104 76.562 170.666 170.666 170.666s170.666-76.562 170.666-170.666v-85.334z" />
<glyph unicode="&#xe902;" glyph-name="running" d="M964 553h-182v120c0 52.6-64.4 80.4-102.4 42.4l-240-240c-23.4-23.4-23.4-61.4 0-84.8l137.6-137.6-167.6-167.6c-23.4-23.4-23.4-61.4 0-84.8s61.4-23.4 84.8 0l210 210c23.4 23.4 23.4 61.4 0 84.8l-137.6 137.6 95.2 95.2v-35.2c0-33.2 26.8-60 60-60h242c33.2 0 60 26.8 60 60s-26.8 60-60 60zM560.2 858c-23.8 15.8-55.4 12.8-75.8-7.6l-165-165c-23.4-23.4-23.4-61.4 0-84.8s61.4-23.4 84.8 0l130.2 130.2 43.8-31.6 58.6 58.6c9.8 9.8 21.4 17.4 34 23.4l-110.6 76.8zM397.2 348.2c-15.2 15.2-25.4 34-30.8 54.2l-316.8-316.8c-23.4-23.4-23.4-61.4 0-84.8s61.4-23.4 84.8 0l305.2 305-42.4 42.4zM902 823c0-49.706-40.294-90-90-90s-90 40.294-90 90c0 49.706 40.294 90 90 90s90-40.294 90-90z" />
<glyph unicode="&#xe903;" glyph-name="shield" d="M941.824 696.423c-1.225 26.939-1.225 52.654-1.225 78.369 0 20.817-15.919 36.735-36.735 36.735-153.064 0-269.393 44.083-366.13 138.37-14.694 13.47-36.735 13.47-51.43 0-96.737-94.288-213.065-138.37-366.13-138.37-20.817 0-36.735-15.919-36.735-36.735 0-25.715 0-51.43-1.225-78.369-4.898-257.148-12.245-609.808 417.559-757.974l12.245-2.449 12.245 2.449c428.58 148.166 422.457 499.602 417.559 757.974zM482.631 340.090c-7.347-6.123-15.919-9.796-25.715-9.796h-1.225c-9.796 0-19.592 4.898-25.715 12.245l-113.88 126.125 55.103 48.981 89.39-99.186 198.371 188.575 50.205-53.879-226.535-213.065z" />
<glyph unicode="&#xe904;" glyph-name="heartbeat1" d="M1023.625 624.742c-7.055 149.484-122.398 276.094-269.523 277.25-85.344 0.664-159.602-39.812-214.563-117.062-10.93-15.352-20.047-30.703-27.539-44.953-7.492 14.25-16.609 29.602-27.539 44.953-54.516 76.625-127.953 117.070-212.484 117.070-0.688 0-1.383 0-2.078-0.008-147.094-1.148-262.469-127.727-269.523-277.25-8.875-188.344 139.43-314.469 363.914-505.391 40.813-34.711 83.016-70.602 127.961-109.922l19.75-17.281 19.758 17.281c44.938 39.32 87.141 75.211 127.953 109.922 224.492 190.922 372.797 317.047 363.914 505.391zM620.844 165.062c-34.961-29.727-70.93-60.32-108.844-93.258-37.914 32.938-73.883 63.531-108.836 93.258-117.336 99.789-210.492 178.938-270.578 256.945h161.039l40.938 122.812 114.398-285.984 81.586 163.172h360.867c-60.141-78.086-153.508-157.391-270.57-256.945zM930.742 482.008h-437.281l-38.414-76.836-125.609 314.016-79.063-237.18h-157.117c-24.828 46.508-35.227 91.641-32.945 139.906 5.781 122.531 98.047 219.203 210.055 220.086h1.625c64.672 0 119.375-30.438 162.609-90.492 34.367-47.734 48.328-96.922 48.484-97.492l28.914-105.43 28.93 105.484c0.516 1.883 53.375 187.93 211.125 187.93 0.523 0 1.055 0 1.578-0.008 112.008-0.875 204.281-97.547 210.055-220.078 2.281-48.266-8.117-93.398-32.945-139.906z" />
<glyph unicode="&#xe905;" glyph-name="security" d="M899.762 752.669l-384.864 205.075c-5.71 3.047-12.553 3.004-18.219-0.107l-374.215-205.075c-6.137-3.368-9.944-9.805-9.944-16.808v-267.881c0.225-220.205 130.69-419.421 332.451-507.642l51.942-22.635c4.854-2.117 10.382-2.128 15.247-0.021l58.529 25.276c205.503 86.307 339.198 287.448 339.219 510.336v262.567c0 7.078-3.903 13.59-10.147 16.915zM871.588 473.186c-0.043-207.524-124.553-394.776-315.9-475.084l-0.128-0.064-50.969-22.004-44.287 19.321c-187.808 82.116-309.26 267.539-309.474 472.518v256.537l355.183 194.661 365.575-194.8zM364.651 480.297c-6.875 8.051-18.968 9.003-27.019 2.128-8.051-6.864-9.003-18.968-2.128-27.008l101.212-118.522c6.757-7.912 18.594-8.992 26.656-2.427l235.719 191.774c8.212 6.672 9.452 18.743 2.769 26.955-6.672 8.201-18.743 9.452-26.955 2.769l-221.199-179.949z" />
<glyph unicode="&#xe906;" glyph-name="ticket" d="M1007.413 537.572c9.161 0 16.587 7.425 16.587 16.587v106.16c0 28.659-23.315 51.974-51.974 51.974h-920.052c-28.659 0-51.974-23.315-51.974-51.974v-106.16c0-9.163 7.427-16.587 16.587-16.587 49.391 0 89.572-40.181 89.572-89.572s-40.181-89.572-89.572-89.572c-9.161 0-16.587-7.425-16.587-16.587v-106.16c0-28.659 23.315-51.974 51.974-51.974h920.052c28.659 0 51.974 23.315 51.974 51.974v106.16c0 9.163-7.427 16.587-16.587 16.587-49.391 0-89.572 40.181-89.572 89.572s40.181 89.572 89.572 89.572zM884.665 448c0-62.061 46.29-113.511 106.16-121.63v-90.689c0-10.366-8.433-18.799-18.799-18.799h-178.094c0.024 0.367 0.055 0.732 0.055 1.106v35.387c0 9.163-7.427 16.587-16.587 16.587s-16.587-7.425-16.587-16.587v-35.387c0-0.374 0.031-0.739 0.055-1.106h-708.893c-10.366 0-18.799 8.433-18.799 18.799v90.689c59.87 8.119 106.16 59.571 106.16 121.63s-46.29 113.511-106.16 121.63v90.689c0 10.366 8.433 18.799 18.799 18.799h708.896c-0.024-0.367-0.055-0.732-0.055-1.106v-35.387c0-9.163 7.427-16.587 16.587-16.587s16.587 7.425 16.587 16.587v35.387c0 0.374-0.031 0.739-0.055 1.106h178.092c10.366 0 18.799-8.433 18.799-18.799v-90.689c-59.868-8.119-106.16-59.571-106.16-121.63zM777.4 482.281c-9.161 0-16.587-7.425-16.587-16.587v-35.387c0-9.163 7.427-16.587 16.587-16.587s16.587 7.425 16.587 16.587v35.387c0 9.161-7.425 16.587-16.587 16.587zM777.4 588.441c-9.161 0-16.587-7.425-16.587-16.587v-35.387c0-9.163 7.427-16.587 16.587-16.587s16.587 7.425 16.587 16.587v35.387c0 9.161-7.425 16.587-16.587 16.587zM777.4 376.121c-9.161 0-16.587-7.425-16.587-16.587v-35.387c0-9.163 7.427-16.587 16.587-16.587s16.587 7.425 16.587 16.587v35.387c0 9.161-7.425 16.587-16.587 16.587zM653.546 606.134h-406.946c-18.903 0-34.281-15.378-34.281-34.281v-247.706c0-18.903 15.378-34.281 34.281-34.281h406.946c18.903 0 34.281 15.378 34.281 34.281v247.706c0 18.903-15.378 34.281-34.281 34.281zM654.652 324.147c0-0.608-0.495-1.106-1.106-1.106h-406.946c-0.61 0-1.106 0.498-1.106 1.106v247.706c0 0.608 0.495 1.106 1.106 1.106h406.946c0.61 0 1.106-0.498 1.106-1.106v-247.706zM582.773 499.974h-265.4c-9.161 0-16.587-7.425-16.587-16.587s7.427-16.587 16.587-16.587h265.4c9.161 0 16.587 7.425 16.587 16.587s-7.427 16.587-16.587 16.587zM370.454 429.201h-53.080c-9.161 0-16.587-7.425-16.587-16.587s7.427-16.587 16.587-16.587h53.080c9.161 0 16.587 7.425 16.587 16.587s-7.427 16.587-16.587 16.587zM582.773 429.201h-141.546c-9.161 0-16.587-7.425-16.587-16.587s7.427-16.587 16.587-16.587h141.546c9.161 0 16.587 7.425 16.587 16.587s-7.427 16.587-16.587 16.587z" />
<glyph unicode="&#xe907;" glyph-name="man-user" d="M512 459.118c113.81 0 206.263 112.055 206.263 250.441s-30.427 250.441-206.263 250.441-206.263-112.055-206.263-250.441c0-138.386 92.453-250.441 206.263-250.441zM122.587 76.727c0 8.485 0 2.633 0 0v0zM901.413 70.29c0 2.341 0 16.091 0 0v0zM900.827 86.967c-3.803 240.786-35.109 309.541-275.895 353.134 0 0-33.938-43.301-112.933-43.301s-112.933 43.301-112.933 43.301c-238.153-43.008-271.506-110.592-275.895-345.234-0.293-19.017-0.585-20.187-0.585-17.847 0-4.096 0-11.995 0-25.454 0 0 57.344-115.566 389.413-115.566s389.413 115.566 389.413 115.566c0 8.777 0 14.629 0 18.725 0-1.463-0.293 1.17-0.585 16.677z" />
<glyph unicode="&#xe908;" glyph-name="chat" d="M634 898h-544c-49.8 0-90-40.2-90-90v-360c0-49.8 40.2-90 90-90h30v-90c0-21.6 22.4-37.4 44.4-26.4 0.6 0.6 1.8 0.6 2.4 1.2 165 110.6 128 86 165 110.4 4.8 3 10.2 4.8 16.2 4.8h286c49.8 0 90 40.2 90 90v360c0 49.8-40.2 90-90 90zM394 538h-244c-39.6 0-39.8 60 0 60h244c39.6 0 39.8-60 0-60zM574 658h-424c-39.6 0-39.8 60 0 60h424c39.6 0 39.8-60 0-60zM934 658h-150v-210c0-82.8-67.2-150-150-150h-277l-57-37.8v-52.2c0-49.8 40.2-90 90-90h295l172.2-115.2c23.6-13 46.8 2.8 46.8 25.2v90h30c49.8 0 90 40.2 90 90v360c0 49.8-40.2 90-90 90z" />
<glyph unicode="&#xe909;" glyph-name="shopping-cart" d="M307.2 140.8c-56.42 0-102.4-46.18-102.4-102.4s45.98-102.4 102.4-102.4 102.4 46.18 102.4 102.4-45.98 102.4-102.4 102.4zM0 960v-102.4h102.4l184.32-389.12-71.68-122.88c-5.22-15.26-10.24-35.94-10.24-51.2 0-56.22 45.98-102.4 102.4-102.4h614.4v102.4h-593.92c-5.22 0-10.24 5.020-10.24 10.24v5.22l45.98 87.14h378.88c40.96 0 71.68 20.48 87.14 51.2l184.32 332.7c10.24 10.24 10.24 15.46 10.24 25.7 0 30.72-20.48 51.2-51.2 51.2h-757.76l-46.18 102.4h-168.86zM819.2 140.8c-56.22 0-102.4-46.18-102.4-102.4s46.18-102.4 102.4-102.4 102.4 46.18 102.4 102.4-46.18 102.4-102.4 102.4z" />
<glyph unicode="&#xe90a;" glyph-name="finish" d="M259.6-63.4l18.8 5.2c18.2 5 28.8 23.8 23.6 42l-215.6 771.4c-3 10.8-10.2 20.2-20.2 25.6-9.8 5.6-21.4 7-32.4 4l-2.4-0.6c-22.6-6.4-36-29.8-29.6-52.6l215.6-771.4c5.2-18 24-28.6 42.2-23.6v0zM1018.6 475.6c-68.4 34-131.6 77.6-187.8 129.2-4.8 4.4-6.6 11-4.8 17.2 27.8 105.4 48.6 212.8 62 321 2.2 18-7.6 23.4-17.8 11-201-240.2-548.6 44-755.4-174.4 2.4-4.6 4.4-9.6 5.8-14.6l139.8-500.8c207.2 215.6 553.6-66.8 754.2 173 10.2 12.4 12 35 4 38.4v0z" />
<glyph unicode="&#xe90b;" glyph-name="circle-down" d="M1024 448c0 282.784-229.216 512-512 512s-512-229.216-512-512 229.216-512 512-512 512 229.216 512 512zM96 448c0 229.76 186.24 416 416 416s416-186.24 416-416-186.24-416-416-416-416 186.24-416 416zM317.248 605.248l-90.528-90.528 285.248-285.248 285.248 285.248-90.496 90.496-194.752-194.752z" />
<glyph unicode="&#xe90c;" glyph-name="circle-left" d="M512-64c282.784 0 512 229.216 512 512s-229.216 512-512 512-512-229.216-512-512 229.216-512 512-512zM512 864c229.76 0 416-186.24 416-416s-186.24-416-416-416-416 186.24-416 416 186.24 416 416 416zM669.248 642.752l-90.528 90.528-285.248-285.248 285.248-285.248 90.496 90.496-194.752 194.752z" />
<glyph unicode="&#xe90d;" glyph-name="circle-right" d="M512 960c-282.784 0-512-229.216-512-512s229.216-512 512-512 512 229.216 512 512-229.216 512-512 512zM512 32c-229.76 0-416 186.24-416 416s186.24 416 416 416 416-186.24 416-416-186.24-416-416-416zM354.752 253.248l90.528-90.528 285.248 285.248-285.248 285.248-90.496-90.496 194.752-194.752z" />
<glyph unicode="&#xe90e;" glyph-name="circle-up" d="M0 448c0-282.784 229.216-512 512-512s512 229.216 512 512-229.216 512-512 512-512-229.216-512-512zM928 448c0-229.76-186.24-416-416-416s-416 186.24-416 416 186.24 416 416 416 416-186.24 416-416zM706.752 290.752l90.528 90.528-285.248 285.248-285.248-285.248 90.496-90.496 194.752 194.752z" />
<glyph unicode="&#xe90f;" glyph-name="circle-vol-1circle" d="M874.040 810.038c-96.706 96.704-225.28 149.962-362.040 149.962-125.258 0-245.832-45.74-339.508-128.792-6.198-5.496-6.768-14.976-1.272-21.176 5.496-6.198 14.974-6.768 21.174-1.272 88.184 78.182 201.688 121.24 319.606 121.24 265.776 0 482-216.224 482-482s-216.224-482-482-482-482 216.224-482 482c0 117.918 43.058 231.424 121.24 319.606 5.496 6.198 4.926 15.68-1.272 21.174-6.2 5.498-15.68 4.926-21.174-1.272-83.054-93.676-128.794-214.248-128.794-339.508 0-136.76 53.258-265.334 149.96-362.038 96.706-96.704 225.28-149.962 362.040-149.962s265.334 53.258 362.040 149.962c96.702 96.704 149.96 225.278 149.96 362.038s-53.258 265.334-149.96 362.038z" />
<glyph unicode="&#xe910;" glyph-name="clip" d="M888.313 515.616l-463.079-463.079c-72.766-72.758-191.149-72.758-263.899-0.008l-2.859 2.859c-35.133 35.133-54.485 82-54.485 131.953s19.352 96.813 54.485 131.946l545.345 545.345c49.867 49.867 131.016 49.875 180.883 0l1.422-1.422c49.867-49.867 49.867-131.008 0-180.875l-542.501-542.501c-26.977-26.977-70.883-26.969-97.852-0.008l-1.422 1.43c-13.008 13.008-20.172 30.391-20.172 48.93 0 18.547 7.164 35.93 20.172 48.938l460.907 460.907c11.719 11.719 11.719 30.711 0 42.43-11.711 11.711-30.703 11.711-42.422 0l-460.915-460.923c-24.336-24.336-37.742-56.781-37.742-91.352s13.406-67.016 37.734-91.344l1.43-1.43c50.375-50.375 132.328-50.367 182.704 0l542.494 542.494c73.266 73.266 73.266 192.469 0 265.727l-1.422 1.422c-73.258 73.258-192.461 73.258-265.719 0l-545.345-545.345c-46.469-46.461-72.055-108.391-72.055-174.368 0-65.985 25.586-127.907 72.047-174.368l2.859-2.859c48.078-48.078 111.227-72.117 174.375-72.117s126.297 24.039 174.368 72.117l463.087 463.079c11.711 11.719 11.711 30.711 0 42.422-11.719 11.719-30.711 11.719-42.422 0z" />
<glyph unicode="&#xe911;" glyph-name="dental-1" horiz-adv-x="783" d="M761.703 718.511c-124.851 0-226.43 101.579-226.43 226.43 0 11.499-9.309 20.535-20.535 20.535h-246.965c-11.499 0-20.535-9.309-20.535-20.535 0-124.851-101.579-226.43-226.43-226.43-11.499 0-20.535-9.309-20.535-20.535v-247.239c0-235.191 363.602-499.679 379.209-510.905 3.559-2.464 7.94-3.833 12.047-3.833s8.488 1.369 12.047 3.833c15.606 11.226 379.209 275.713 379.209 510.905v246.965c-0.548 11.499-9.583 20.809-21.082 20.809zM741.168 450.738c0-191.658-287.213-420.552-349.912-468.466-62.973 47.641-349.912 276.535-349.912 468.466v227.251c131.149 10.13 236.287 114.995 246.417 246.417h207.538c10.13-131.149 114.995-236.287 246.417-246.417-0.548 0-0.548-227.251-0.548-227.251zM464.359 672.24c-26.284 0-51.474-7.393-73.378-21.082-21.904 13.69-47.367 21.082-73.378 21.082-77.211 0-137.72-59.14-137.72-134.434 0-34.772 15.333-63.521 24.368-80.496 2.19-3.833 3.833-7.119 4.928-9.583 0.821-74.747 49.831-264.761 108.424-264.761 9.309 0 17.797 3.559 24.642 10.404 24.094 24.094 25.737 88.436 25.463 191.11v7.119c5.476 0.548 13.416 1.095 23.273 1.095s17.797-0.548 23.273-1.095v-7.393c-0.274-102.674 1.369-167.016 25.463-191.11 6.845-6.845 15.333-10.404 24.642-10.404 58.593 0 107.602 190.015 108.424 264.761 1.095 2.464 2.738 5.75 4.928 9.583 9.035 17.249 24.368 45.998 24.368 80.496 0.274 75.842-60.509 134.708-137.72 134.708zM541.57 476.749c-5.75-10.952-9.583-18.344-9.583-26.832 0-79.127-43.534-196.586-65.985-222.049-10.678 24.642-10.404 109.245-10.13 156.612v21.63c0 26.011-33.403 28.201-64.616 28.201s-64.616-2.19-64.616-28.201v-21.356c0-47.367 0.274-131.97-10.13-156.886-22.178 25.463-65.985 142.922-65.985 222.049 0 8.488-3.833 15.606-9.583 26.832-8.214 15.606-19.713 36.963-19.713 61.33 0 52.295 42.439 93.091 96.65 93.091 22.178 0 42.986-7.393 60.509-21.356 7.393-6.024 18.344-6.024 25.737 0 17.249 13.964 38.332 21.356 60.509 21.356 54.212 0 96.65-40.796 96.65-93.091-0.274-24.642-11.499-45.724-19.713-61.33z" />
<glyph unicode="&#xe912;" glyph-name="envelope" d="M21.376 769.688c140.54-119.022 387.144-328.418 459.624-393.708 9.73-8.812 20.166-13.292 31-13.292 10.812 0 21.23 4.438 30.938 13.208 72.542 65.354 319.146 274.77 459.688 393.792 8.75 7.396 10.084 20.396 3 29.438-16.376 20.894-40.792 32.874-66.96 32.874h-853.332c-26.166 0-50.584-11.98-66.958-32.876-7.084-9.040-5.75-22.040 3-29.436zM1011.626 705.188c-7.562 3.52-16.458 2.292-22.75-3.084-155.856-132.124-354.772-301.48-417.356-357.874-35.126-31.708-83.876-31.708-119.084 0.042-66.708 60.104-290.084 250-417.312 357.834-6.334 5.376-15.25 6.562-22.75 3.084-7.54-3.502-12.374-11.044-12.374-19.356v-536.5c0-47.064 38.27-85.334 85.334-85.334h853.334c47.062 0 85.332 38.27 85.332 85.334v536.5c0 8.312-4.834 15.874-12.374 19.354z" />
<glyph unicode="&#xe913;" glyph-name="exclamation-fill" d="M512 960c-282.328 0-512-229.672-512-512s229.672-512 512-512 512 229.672 512 512-229.672 512-512 512zM512 149.336c-23.555 0-42.664 19.109-42.664 42.664s19.109 42.664 42.664 42.664 42.664-19.109 42.664-42.664-19.109-42.664-42.664-42.664zM554.664 362.664c0-23.547-19.109-42.664-42.664-42.664s-42.664 19.117-42.664 42.664v341.336c0 23.555 19.109 42.664 42.664 42.664s42.664-19.109 42.664-42.664z" />
<glyph unicode="&#xe914;" glyph-name="exclamation" d="M512 960c-283.006 0-512-229.014-512-512 0-283.006 229.014-512 512-512 283.006 0 512 229.014 512 512 0 283.006-229.014 512-512 512zM512 16c-238.786 0-432 193.23-432 432 0 238.786 193.23 432 432 432 238.786 0 432-193.23 432-432 0-238.786-193.23-432-432-432zM512 702.246c-22.092 0-40-17.908-40-40v-257.586c0-22.092 17.908-40 40-40s40 17.908 40 40v257.586c0 22.092-17.908 40-40 40zM566 261.68c0-29.823-24.177-54-54-54s-54 24.177-54 54c0 29.823 24.177 54 54 54s54-24.177 54-54z" />
<glyph unicode="&#xe915;" glyph-name="pen" d="M881.504 889.686c-51.612 51.521-135.19 51.521-186.802 0l-46.76-47.017-498.818-498.562c-0.256-0.256-0.256-0.529-0.529-0.529-0.529-0.793-1.322-1.579-1.843-2.372 0-0.264-0.273-0.264-0.273-0.529-0.529-0.793-0.785-1.322-1.322-2.116-0.256-0.264-0.256-0.521-0.521-0.793-0.264-0.793-0.529-1.322-0.802-2.116 0-0.256-0.256-0.256-0.256-0.529l-110.438-332.099c-3.24-9.455-0.777-19.926 6.339-26.942 5-4.934 11.744-7.694 18.76-7.669 2.868 0.050 5.711 0.496 8.455 1.322l331.843 110.702c0.256 0 0.256 0 0.529 0.256 0.835 0.248 1.636 0.603 2.372 1.066 0.207 0.025 0.388 0.116 0.537 0.256 0.785 0.529 1.843 1.066 2.636 1.595 0.785 0.521 1.587 1.314 2.38 1.843 0.264 0.273 0.521 0.273 0.521 0.529 0.273 0.264 0.802 0.521 1.066 1.058l544.52 544.52c51.521 51.612 51.521 135.19 0 186.793zM390.082 142.529l-183.884 183.876 460.239 460.239 183.884-183.876zM180.297 277.529l160.645-160.636-241.223-80.314zM915.851 668.554l-28.008-28.273-183.892 183.892 28.281 28.264c30.934 30.909 81.074 30.909 112.016 0l71.859-71.859c30.702-31.074 30.587-81.099-0.256-112.025z" />
<glyph unicode="&#xe916;" glyph-name="right-arrow" d="M796.462 487.956l-455.693 455.685c-10.54 10.548-24.609 16.359-39.611 16.359s-29.071-5.811-39.611-16.359l-33.559-33.55c-21.837-21.862-21.837-57.393 0-79.222l382.657-382.657-383.081-383.081c-10.54-10.548-16.359-24.609-16.359-39.603 0-15.010 5.819-29.071 16.359-39.628l33.559-33.542c10.548-10.548 24.609-16.359 39.611-16.359s29.071 5.811 39.611 16.359l456.118 456.101c10.565 10.581 16.367 24.709 16.334 39.728 0.033 15.077-5.769 29.196-16.334 39.769z" />
<glyph unicode="&#xe917;" glyph-name="tick" d="M1012.464 808.984c-15.378 15.38-40.316 15.38-55.698 0l-638.421-638.423-251.11 251.112c-15.378 15.382-40.316 15.382-55.698 0-15.38-15.38-15.38-40.316 0-55.698l278.963-278.963c15.374-15.374 40.32-15.378 55.698 0l666.267 666.273c15.38 15.382 15.38 40.318 0 55.698z" />
<glyph unicode="&#xe918;" glyph-name="writing" d="M704.918 520c0 22.092-17.908 40-40 40h-412c-22.092 0-40-17.908-40-40s17.908-40 40-40h412c22.092 0 40 17.908 40 40zM252.918 400c-22.092 0-40-17.908-40-40s17.908-40 40-40h250.222c22.092 0 40 17.908 40 40s-17.908 40-40 40h-250.222zM346.918 16h-133.778c-44.112 0-80 35.888-80 80v704c0 44.112 35.888 80 80 80h491.778c44.112 0 80-35.888 80-80v-246c0-22.092 17.908-40 40-40s40 17.908 40 40v246c0 88.224-71.776 160-160 160h-491.778c-88.224 0-160-71.776-160-160v-704c0-88.224 71.776-160 160-160h133.778c22.092 0 40 17.908 40 40s-17.908 40-40 40zM935.768 380.856c-46.788 46.788-122.916 46.79-169.674 0.032l-219.606-219.12c-4.664-4.654-8.104-10.386-10.020-16.69l-47.826-157.45c-4.24-13.96-0.546-29.118 9.642-39.56 7.632-7.822 18-12.068 28.634-12.068 3.558 0 7.15 0.476 10.676 1.454l161.45 44.722c6.644 1.84 12.7 5.366 17.58 10.238l219.146 218.734c46.788 46.788 46.788 122.916-0.002 169.708zM667.552 56.464l-81.224-22.5 23.77 78.258 148.178 147.85 56.58-56.58-147.304-147.028zM879.23 267.74l-7.75-7.734-56.57 56.57 7.724 7.708c15.596 15.596 40.972 15.596 56.568 0s15.596-40.972 0.028-56.544zM664.918 720h-412c-22.092 0-40-17.908-40-40s17.908-40 40-40h412c22.092 0 40 17.908 40 40s-17.908 40-40 40z" />
<glyph unicode="&#xe919;" glyph-name="calendar" d="M904 880h-48v80h-80v-80h-528v80h-80v-80h-48c-66.168 0-120-53.832-120-120v-704c0-66.168 53.832-120 120-120h784c66.168 0 120 53.832 120 120v704c0 66.168-53.832 120-120 120zM944 56c0-22.056-17.944-40-40-40h-784c-22.056 0-40 17.944-40 40v528h864v-528zM944 664h-864v96c0 22.056 17.944 40 40 40h48v-80h80v80h528v-80h80v80h48c22.056 0 40-17.944 40-40v-96zM152 500h80v-80h-80v80zM312 500h80v-80h-80v80zM472 500h80v-80h-80v80zM632 500h80v-80h-80v80zM792 500h80v-80h-80v80zM152 340h80v-80h-80v80zM312 340h80v-80h-80v80zM472 340h80v-80h-80v80zM632 340h80v-80h-80v80zM152 180h80v-80h-80v80zM312 180h80v-80h-80v80zM472 180h80v-80h-80v80zM632 180h80v-80h-80v80zM792 340h80v-80h-80v80z" />
<glyph unicode="&#xe91a;" glyph-name="print" d="M224.62 305.399h-126.678c-11.826 0-31.876 24.898-31.876 43.802v290.453c0 13.7 24.4 14.766 31.876 14.766h94.738c18.242 0 33.032 14.79 33.032 33.032s-14.79 33.032-33.032 33.032h-94.738c-58.584 0-97.942-32.482-97.942-80.83v-290.453c0-49.764 43.688-109.866 97.942-109.866h126.678c18.242 0 33.032 14.788 33.032 33.032s-14.79 33.032-33.032 33.032zM991.45 703.425c-16.232 11.182-37.772 17.092-62.284 17.092h-129.784c-18.244 0-33.032-14.79-33.032-33.032s14.788-33.032 33.032-33.032h129.784c28.772 0 28.772-11.112 28.772-14.766v-290.453c0-19.886-17.672-43.802-28.772-43.802h-129.784c-18.244 0-33.032-14.788-33.032-33.032s14.788-33.032 33.032-33.032h129.784c53.412 0 94.836 59.060 94.834 109.866v290.453c0 26.644-11.56 49.28-32.55 63.738zM831.326 592.779h-638.647c-18.242 0-33.032-14.79-33.032-33.032s14.79-33.032 33.032-33.032h638.647c18.244 0 33.032 14.79 33.032 33.032s-14.788 33.032-33.032 33.032zM799.382 912.104h-574.761c-18.242 0-33.032-14.79-33.032-33.032v-319.323c0-18.242 14.79-33.032 33.032-33.032s33.032 14.79 33.032 33.032v286.291h508.697v-286.293c0-18.242 14.788-33.032 33.032-33.032s33.032 14.792 33.032 33.034v319.323c0 18.242-14.788 33.032-33.032 33.032zM799.382 401.193h-574.761c-18.242 0-33.032-14.788-33.032-33.032v-351.233c0-18.244 14.79-33.032 33.032-33.032h574.761c18.244 0 33.032 14.788 33.032 33.032v351.233c0 18.244-14.788 33.032-33.032 33.032zM766.349 49.96h-508.697v285.169h508.697v-285.169zM735.529 496.989h-95.828c-18.244 0-33.032-14.788-33.032-33.032s14.788-33.032 33.032-33.032h95.828c18.244 0 33.032 14.79 33.032 33.032s-14.788 33.032-33.032 33.032zM854.154 504.299c-6.152 6.132-14.658 9.662-23.35 9.662-8.71 0-17.218-3.53-23.37-9.662-6.152-6.152-9.662-14.68-9.662-23.37s3.512-17.218 9.662-23.35c6.152-6.152 14.658-9.682 23.37-9.682 8.692 0 17.198 3.53 23.35 9.682s9.682 14.658 9.682 23.35-3.528 17.218-9.682 23.37zM671.645 273.491h-319.291c-18.242 0-33.032-14.788-33.032-33.032s14.79-33.032 33.032-33.032h319.293c18.244 0 33.032 14.788 33.030 33.032 0 18.244-14.788 33.032-33.032 33.032zM671.647 177.696h-31.942c-18.244 0-33.032-14.788-33.032-33.032s14.788-33.032 33.032-33.032h31.942c18.244 0 33.032 14.788 33.032 33.032s-14.788 33.032-33.032 33.032zM543.943 177.696h-191.588c-18.242 0-33.032-14.788-33.032-33.032s14.79-33.032 33.032-33.032h191.588c18.244 0 33.032 14.788 33.032 33.032s-14.788 33.032-33.032 33.032z" />
<glyph unicode="&#xe91b;" glyph-name="dental-edit" horiz-adv-x="778" d="M757.251 714.411c-124.258 0-225.33 101.072-225.33 225.33 0 11.48-9.229 20.485-20.485 20.485h-245.364c-11.48 0-20.485-9.229-20.485-20.485 0-124.258-101.072-225.33-225.33-225.33-11.48 0-20.485-9.229-20.485-20.485v-246.039c0-233.883 361.743-497.031 377.275-508.286 3.602-2.476 7.879-3.827 11.931-3.827s8.554 1.351 11.931 3.827c15.532 11.255 377.275 274.177 377.275 508.286v245.814c-0.45 11.48-9.454 20.71-20.935 20.71zM736.992 447.887c0-190.663-285.658-418.244-348.011-465.966-62.579 47.497-348.011 275.078-348.011 465.966v226.23c130.561 10.13 235.009 114.353 245.139 245.139h206.196c10.13-130.561 114.353-235.009 245.139-245.139-0.45 0-0.45-226.23-0.45-226.23zM461.464 668.265c-26.112 0-51.099-7.428-72.934-20.935-21.835 13.506-47.047 20.935-72.934 20.935-76.761 0-137.089-58.752-137.089-133.712 0-34.666 15.307-63.254 24.311-80.137 2.251-3.827 3.827-6.978 4.952-9.454 0.9-74.284 49.523-263.372 107.825-263.372 9.229 0 17.783 3.602 24.536 10.355 23.861 23.861 25.662 88.016 25.437 190.213v6.978c5.403 0.45 13.281 1.126 23.186 1.126s17.783-0.45 23.186-1.126v-7.428c-0.225-102.197 1.351-166.127 25.437-190.213 6.753-6.753 15.307-10.355 24.536-10.355 58.302 0 106.925 189.088 107.825 263.372 1.126 2.476 2.701 5.628 4.952 9.454 9.004 17.108 24.311 45.696 24.311 80.137-0.225 75.635-60.553 134.162-137.539 134.162zM538.45 473.774c-5.628-10.805-9.454-18.233-9.454-26.787 0-78.787-43.22-195.616-65.73-220.827-10.58 24.536-10.355 108.725-10.13 155.772v21.61c0 25.887-33.315 28.138-64.38 28.138s-64.38-2.251-64.38-28.138v-21.16c0-47.047 0.225-131.236-10.13-155.997-22.060 25.437-65.73 142.266-65.73 220.827 0 8.554-3.827 15.532-9.454 26.787-8.104 15.532-19.584 36.692-19.584 61.003 0 51.999 42.32 92.518 96.12 92.518 22.060 0 42.77-7.428 60.103-21.16 7.428-6.078 18.233-6.078 25.662 0 17.108 13.956 38.043 21.16 60.103 21.16 54.025 0 96.12-40.519 96.12-92.518 0-24.761-11.030-45.696-19.134-61.228z" />
</font>
</defs>
</svg>
